<svg width="132" height="71" viewBox="0 0 132 71" fill="none" xmlns="http://www.w3.org/2000/svg">
<path d="M63.1313 28.505C64.3714 28.2951 65.7915 27.923 66.885 27.7035C68.4172 27.3969 69.9651 27.0884 71.5286 26.778C71.5387 26.776 71.5491 26.7764 71.5588 26.7794C71.5686 26.7824 71.5774 26.7877 71.5843 26.7948C71.5912 26.8019 71.5961 26.8107 71.5983 26.8201C71.6005 26.8295 71.6001 26.8394 71.5971 26.8486C70.8016 29.6297 69.9449 32.393 69.0269 35.1384C68.8723 35.6022 68.7354 35.9323 68.2679 36.188C66.6183 37.0875 64.9641 37.973 63.3054 38.8444C63.2914 38.8514 63.2803 38.863 63.2742 38.8771C63.2681 38.8912 63.2674 38.907 63.272 38.9216C63.2767 38.9363 63.2866 38.9488 63.2999 38.9571C63.3131 38.9653 63.3289 38.9687 63.3445 38.9666L67.3036 38.5983C67.3127 38.5973 67.3219 38.5988 67.3302 38.6027C67.3384 38.6066 67.3454 38.6127 67.3503 38.6202C67.3552 38.6278 67.3578 38.6365 67.3578 38.6455C67.3579 38.6544 67.3553 38.6632 67.3505 38.6708C64.2795 43.8329 59.3424 46.2469 53.3843 46.7908C52.7388 46.8499 52.0933 47.2278 51.8273 47.8709C50.9529 49.9835 50.2214 52.5444 49.613 54.6207C48.6154 58.0348 47.9465 61.1511 46.9626 64.3991C46.9507 64.4368 46.9256 64.4692 46.8917 64.4907C46.8578 64.5122 46.8173 64.5213 46.7771 64.5165C46.737 64.5118 46.6999 64.4934 46.6723 64.4646C46.6447 64.4357 46.6283 64.3984 46.6261 64.359C46.544 62.4583 46.943 60.529 47.2247 58.6378C47.4731 56.9852 47.9113 55.1283 48.3259 53.4356C49.2596 49.6368 50.3322 45.8761 51.5437 42.1535C51.957 40.8851 52.4056 39.6917 52.8894 38.5735C59.0569 24.3048 69.2616 11.5017 80.8375 1.03822C80.994 0.89573 81.0898 0.928172 81.125 1.13555C81.2698 2.00003 80.5754 3.8244 80.059 4.5553C78.1303 7.28423 76.5818 10.2059 75.4134 13.3203C75.0887 14.1867 74.9126 15.7268 73.7762 15.9481C72.7812 16.1415 71.8253 16.4475 70.9086 16.866C70.803 16.9144 70.8082 16.9405 70.9242 16.9443L73.9894 17.0588C74.0007 17.0592 74.0119 17.0621 74.0219 17.0674C74.0319 17.0726 74.0406 17.0801 74.0472 17.0891C74.0538 17.0981 74.0582 17.1085 74.06 17.1195C74.0619 17.1304 74.0611 17.1417 74.0578 17.1523C73.7898 18.053 73.6314 19.011 73.3673 19.8679C73.0139 21.0154 72.7186 22.1763 72.4812 23.3506C72.1429 25.0223 70.3609 25.3276 68.9858 25.8982C67.0649 26.6959 65.0971 27.5101 63.0824 28.3409C63.0621 28.3488 63.0456 28.3639 63.0361 28.383C63.0265 28.4022 63.0246 28.4241 63.0307 28.4446C63.0368 28.465 63.0505 28.4826 63.0691 28.4937C63.0877 28.5049 63.1098 28.5089 63.1313 28.505Z" fill="#CAB59B"/>
<path d="M56.8993 20.1027C56.9017 20.1377 56.9163 20.1707 56.9408 20.1964C56.9652 20.2221 56.9979 20.2387 57.0334 20.2437C57.069 20.2486 57.1052 20.2414 57.1359 20.2234C57.1667 20.2054 57.1902 20.1776 57.2025 20.1447C57.9119 18.1969 58.6141 16.3134 59.3092 14.4941C59.8256 13.1449 60.7547 12.3797 61.8716 11.4178C63.4599 10.0477 64.9524 8.8454 66.349 7.81108C70.1033 5.02744 74.2032 2.86719 78.6486 1.33034C78.7099 1.30871 78.7152 1.31762 78.6643 1.35705C75.6989 3.66488 73.0993 6.04649 70.8655 8.5019C68.8684 10.7003 66.7891 13.4579 64.6824 15.8757C63.7259 16.9749 62.6912 18.118 61.8403 19.2115C55.7139 27.0815 51.5756 35.921 49.4252 45.7299C49.421 45.7508 49.4106 45.77 49.3954 45.7852C49.3801 45.8003 49.3606 45.8109 49.3391 45.8155C49.3177 45.8201 49.2952 45.8187 49.2744 45.8113C49.2536 45.8039 49.2353 45.7909 49.2218 45.7738C48.6604 45.0677 48.3103 44.3387 48.0482 43.4303C47.0023 39.807 46.9893 36.1665 48.009 32.5089C48.026 32.4465 48.0456 32.4459 48.0677 32.507C48.5007 33.7169 48.8195 34.9535 49.0242 36.2168C49.0321 36.2626 49.1455 36.4133 49.1846 36.4362C49.2023 36.4474 49.2227 36.4537 49.2438 36.4547C49.2648 36.4556 49.2857 36.4511 49.3044 36.4416C49.3231 36.4321 49.3389 36.418 49.3501 36.4006C49.3614 36.3832 49.3677 36.3633 49.3685 36.3427C49.5002 33.8861 49.5967 31.4319 49.658 28.9803C49.703 27.198 50.2096 26.28 51.2013 24.5568C52.6879 21.9767 54.3812 19.5315 56.2812 17.2211C56.3816 17.0977 56.4696 17.0093 56.5453 16.9559C56.562 16.9438 56.5817 16.9364 56.6024 16.9343C56.6231 16.9323 56.644 16.9358 56.6628 16.9444C56.6817 16.953 56.6978 16.9664 56.7094 16.9832C56.7211 17 56.7279 17.0196 56.7291 17.0398L56.8993 20.1027Z" fill="#CAB59B"/>
<path d="M25.0489 30.7246C26.4905 29.6235 28.3233 28.6064 30.1914 28.5358C32.0985 28.4652 33.1215 28.7781 34.8702 29.7247C35.1871 29.8964 35.3945 30.2552 35.8189 30.3907C35.8478 30.3997 35.8744 30.4145 35.897 30.4343C35.9196 30.454 35.9376 30.4782 35.95 30.5052C36.1475 30.9498 36.527 31.0949 36.7676 31.4403C37.6615 32.7246 38.309 34.0585 38.5241 35.6253C39.5002 42.7167 34.792 50.5905 27.6035 52.6172C25.9663 53.0771 24.2547 53.1019 22.5862 52.934C21.6238 52.8385 20.7847 52.4321 19.8751 52.0695C19.8185 52.0465 19.7729 52.0033 19.7478 51.9487C19.7227 51.894 19.72 51.8321 19.7402 51.7756L19.9905 51.0752C19.995 51.0626 20.0021 51.051 20.0114 51.0412C20.0207 51.0313 20.032 51.0234 20.0446 51.0179C20.0572 51.0124 20.0708 51.0094 20.0847 51.009C20.0986 51.0087 20.1125 51.0111 20.1255 51.0161C22.0581 51.7851 23.5779 52.2927 25.5751 51.8748C32.0809 50.5142 37.0356 42.6594 36.3314 36.4306C36.1612 34.9249 35.9598 33.9822 35.3319 32.6979C34.6062 31.217 33.4501 29.8621 31.7562 29.427C29.1253 28.7495 26.4964 29.967 24.7731 31.9403C24.6186 32.1158 24.4484 32.1864 24.2293 32.1483C24.2014 32.1434 24.1761 32.1292 24.1579 32.1083C24.1397 32.0874 24.1296 32.061 24.1295 32.0338C24.1335 30.9155 24.419 29.78 24.6088 28.6789C24.8807 27.1198 25.0821 25.2076 25.4088 23.4748C25.6944 21.9634 25.8274 20.3299 26.1404 18.7612C26.4612 17.162 26.5629 15.5151 26.915 13.8988C26.9203 13.8739 26.9342 13.8516 26.9541 13.8357C26.9741 13.8197 26.9989 13.811 27.0245 13.811H37.4601C37.4953 13.8109 37.5296 13.7994 37.5576 13.7784C37.5855 13.7573 37.6055 13.7279 37.6146 13.6946L37.9725 12.4064C37.982 12.3715 38.0031 12.3405 38.0324 12.3185C38.0618 12.2964 38.0978 12.2844 38.1349 12.2843H38.5789C38.5937 12.2844 38.6083 12.2876 38.6217 12.2937C38.6352 12.2999 38.647 12.3088 38.6565 12.3199C38.666 12.331 38.6729 12.3439 38.6768 12.3579C38.6806 12.3719 38.6812 12.3865 38.6787 12.4007C38.4648 13.5584 38.1727 14.6964 37.8024 15.8147C37.7933 15.8424 37.7753 15.8665 37.7511 15.8836C37.7268 15.9008 37.6975 15.91 37.6674 15.9102H27.4138C27.3887 15.91 27.3645 15.9191 27.3457 15.9357C27.3269 15.9522 27.3149 15.9751 27.312 15.9998C27.0891 17.9101 26.7018 19.6601 26.424 21.6867C26.2206 23.158 25.8372 24.7859 25.6748 26.4194C25.534 27.8449 25.1741 29.2552 24.9843 30.6884C24.9752 30.752 24.9967 30.7641 25.0489 30.7246Z" fill="#005DB0"/>
<path d="M16.8472 49.3023L16.6946 49.5408C16.6633 49.5917 16.6216 49.6318 16.5694 49.661C16.3216 49.7997 16.1586 50.0045 16.0804 50.2755C16.0724 50.3053 16.0577 50.333 16.0374 50.3564C16.0171 50.3799 15.9917 50.3985 15.963 50.411C15.6579 50.5497 15.4323 50.766 15.2862 51.0599C15.2609 51.1104 15.2188 51.1509 15.1669 51.1744C14.9087 51.2876 14.687 51.446 14.5019 51.6495C14.0207 52.1801 13.1581 52.6724 12.5184 52.9911C10.7032 53.8918 8.86713 54.1094 7.01018 53.6438C2.63254 52.5484 0.367424 48.8023 0.0681481 44.6077C-0.131369 41.8196 0.0701041 38.9972 1.17136 36.337C2.28827 33.6367 4.15043 31.0738 6.77741 29.6444C10.7599 27.4784 14.9635 28.5318 17.4007 32.3008C18.3651 33.7912 19.0223 35.8561 19.2394 37.5526C19.6463 40.7115 19.5967 43.8342 19.0908 46.9207C18.9343 47.8729 18.6272 48.8214 18.4198 49.8614C18.281 50.5599 17.9269 51.1744 17.7704 51.8366C17.5748 52.661 17.2208 53.2621 16.9117 53.9815C15.6129 57.0215 13.7155 59.8993 11.5658 62.4336C9.52371 64.84 7.40139 67.2274 4.85657 69.1471C4.11522 69.7044 2.71273 69.7311 2.62471 68.546C2.53473 67.3094 3.95091 67.069 4.78028 66.6358C9.42591 64.2083 13.0387 59.489 15.1454 54.8785C15.3501 54.4306 15.5555 53.9822 15.7616 53.5331C16.1234 52.7411 16.3053 51.8327 16.6301 50.9835C16.8472 50.4167 16.8902 49.8977 16.9215 49.3252C16.9267 49.2234 16.9019 49.2158 16.8472 49.3023ZM15.5601 31.0757C13.917 29.1387 11.3565 28.4612 8.92516 29.299C5.90697 30.339 4.01547 33.36 2.99441 36.1519C2.60711 37.2167 2.37629 38.4419 2.12592 39.6117C1.56453 42.2433 1.78947 44.3463 2.48192 46.9283C2.85748 48.3233 3.56948 49.85 4.40667 50.8499C6.9665 53.9096 9.91166 54.3352 13.2422 52.1266C13.6608 51.848 13.8838 51.411 14.3786 51.1343C14.4313 51.105 14.4705 51.0564 14.4882 50.9988C14.6095 50.577 14.9831 50.432 15.1806 50.1362C17.8585 46.1535 18.1812 41.6994 17.7137 37.0316C17.5122 35.0049 16.9215 32.6806 15.5601 31.0757Z" fill="#005DB0"/>
<path d="M30.9249 68.3781C32.212 68.3933 33.4997 68.4099 34.7881 68.4277C36.5838 68.4525 36.4351 66.9869 36.6894 65.8056C36.7442 65.5524 36.7722 65.5556 36.7735 65.8152L36.797 69.3112C36.7977 69.3195 36.7968 69.3278 36.7943 69.3358C36.7918 69.3437 36.7877 69.3511 36.7822 69.3574C36.7768 69.3638 36.7701 69.3691 36.7625 69.373C36.755 69.3768 36.7468 69.3792 36.7383 69.3799C36.7298 69.3807 36.7213 69.3798 36.7131 69.3773C36.705 69.3749 36.6975 69.3709 36.6909 69.3655C36.6844 69.3602 36.679 69.3537 36.675 69.3463C36.6711 69.339 36.6686 69.331 36.6679 69.3227C36.5525 68.7197 36.1613 68.5803 35.5549 68.5803C33.0537 68.5816 30.5539 68.581 28.0554 68.5784C28.0446 68.5786 28.034 68.5762 28.0244 68.5716C28.0147 68.567 28.0063 68.5603 27.9998 68.5519C27.9934 68.5435 27.989 68.5338 27.9871 68.5235C27.9852 68.5132 27.9858 68.5026 27.9889 68.4926L28.0065 68.4353C28.0106 68.423 28.0185 68.4123 28.0291 68.4047C28.0396 68.3972 28.0523 68.3932 28.0651 68.3933L29.3366 68.3876C29.3687 68.3876 29.3996 68.3751 29.4223 68.3529C29.4451 68.3308 29.4579 68.3007 29.4579 68.2693V56.3021C29.4579 56.2718 29.4458 56.2428 29.4243 56.2211C29.4028 56.1993 29.3734 56.1866 29.3424 56.1856L28.0475 56.1475C28.0403 56.1473 28.0332 56.1453 28.0269 56.1417C28.0206 56.1381 28.0154 56.133 28.0117 56.1269C28.008 56.1208 28.0059 56.1139 28.0057 56.1068C28.0055 56.0997 28.0071 56.0927 28.0104 56.0864L28.0397 56.0387C28.041 56.0349 28.0436 56.033 28.0475 56.033H35.7153C35.7963 56.0329 35.876 56.0123 35.9467 55.9732C36.0173 55.9341 36.0764 55.8778 36.1182 55.8097L36.439 55.2811C36.4458 55.271 36.4557 55.2633 36.4673 55.2591C36.4788 55.2548 36.4915 55.2542 36.5034 55.2574C36.5154 55.2606 36.526 55.2673 36.5337 55.2767C36.5415 55.2861 36.546 55.2977 36.5466 55.3097C36.5466 55.6494 36.5896 58.7657 36.4899 58.7924C36.478 58.7956 36.4656 58.7962 36.4536 58.7942C36.4415 58.7923 36.4301 58.7877 36.4201 58.7809C36.4102 58.7742 36.402 58.7653 36.3961 58.7551C36.3902 58.7449 36.3868 58.7335 36.3862 58.7218C36.308 57.5463 36.1867 56.1818 34.7803 56.1818C33.5023 56.1806 32.2224 56.1748 30.9405 56.1646C30.9257 56.1644 30.911 56.167 30.8973 56.1724C30.8835 56.1777 30.871 56.1857 30.8604 56.1958C30.8499 56.206 30.8415 56.218 30.8358 56.2314C30.83 56.2447 30.8271 56.259 30.8271 56.2734V61.4698C30.8271 61.4992 30.839 61.5274 30.8603 61.5481C30.8816 61.5689 30.9105 61.5805 30.9405 61.5805C32.4565 61.5882 32.8027 61.5156 32.7382 59.9985C32.737 59.9792 32.7423 59.96 32.7532 59.9438C32.7641 59.9277 32.7801 59.9154 32.7988 59.9088L32.8536 59.8897C32.8607 59.8873 32.8683 59.8865 32.8758 59.8876C32.8833 59.8886 32.8905 59.8914 32.8966 59.8957C32.9028 59.9 32.9078 59.9057 32.9112 59.9123C32.9146 59.9189 32.9163 59.9262 32.9162 59.9336L32.924 63.6644C32.9241 63.6772 32.9214 63.6899 32.916 63.7016C32.9107 63.7133 32.9029 63.7238 32.893 63.7323C32.8832 63.7408 32.8717 63.7471 32.8591 63.7509C32.8466 63.7547 32.8333 63.7558 32.8203 63.7541C32.7108 63.7408 32.7069 62.5595 32.6912 62.3744C32.6849 62.3069 32.6528 62.2442 32.6012 62.1988C32.1396 61.7943 31.5808 61.6569 30.9249 61.7866C30.8973 61.7919 30.8724 61.8065 30.8546 61.8277C30.8367 61.8489 30.827 61.8756 30.8271 61.903V68.2826C30.8271 68.3079 30.8374 68.3322 30.8557 68.3501C30.8741 68.368 30.899 68.3781 30.9249 68.3781Z" fill="#005DB0"/>
<path d="M42.2211 68.3895H43.3771C43.4036 68.3896 43.4291 68.3989 43.4491 68.4157C43.4692 68.4325 43.4825 68.4557 43.4867 68.4811L43.4925 68.5288C43.4934 68.5353 43.4929 68.5419 43.491 68.5482C43.4891 68.5545 43.4859 68.5602 43.4817 68.5651C43.4774 68.57 43.4721 68.5739 43.4663 68.5765C43.4604 68.5791 43.454 68.5804 43.4475 68.5804H39.3261C39.3133 68.5803 39.3006 68.5775 39.289 68.5721C39.2774 68.5667 39.2672 68.559 39.259 68.5493C39.2508 68.5397 39.2448 68.5284 39.2416 68.5163C39.2383 68.5042 39.2378 68.4915 39.2401 68.4792C39.2675 68.3475 40.4098 68.38 40.5956 68.3647C40.6254 68.3628 40.6533 68.3499 40.6736 68.3286C40.6939 68.3073 40.7052 68.2793 40.7052 68.2502V56.3154C40.7052 56.2865 40.6938 56.2587 40.6735 56.2378C40.6531 56.2168 40.6252 56.2043 40.5956 56.2028C38.0175 56.0635 37.4581 56.0368 37.2586 58.7199C37.258 58.7311 37.2549 58.7421 37.2496 58.752C37.2442 58.762 37.2368 58.7707 37.2277 58.7776C37.2186 58.7844 37.2081 58.7893 37.1969 58.7919C37.1857 58.7945 37.174 58.7947 37.1628 58.7924C37.0297 58.7657 37.0923 55.7315 37.0962 55.3956C37.0964 55.3842 37.099 55.373 37.104 55.3626C37.109 55.3523 37.1161 55.3431 37.125 55.3357C37.1339 55.3283 37.1443 55.3229 37.1555 55.3197C37.1668 55.3165 37.1786 55.3157 37.1901 55.3174L37.2449 55.325C37.2679 55.3277 37.2894 55.3374 37.3066 55.3528C37.3238 55.3682 37.3357 55.3885 37.3407 55.4109C37.4386 55.846 37.6772 56.033 38.1506 56.033C40.3726 56.0343 42.5941 56.0336 44.8148 56.0311C45.1474 56.0311 45.4043 55.8237 45.5855 55.409C45.6155 55.3403 45.6312 55.3428 45.6325 55.4166L45.6775 58.657C45.6788 58.7804 45.6677 58.7816 45.6442 58.6608C45.4877 57.844 45.5112 56.9375 44.7698 56.3956C44.2456 56.012 42.8822 56.1799 42.225 56.1742C42.198 56.1742 42.1722 56.1847 42.1531 56.2033C42.134 56.2219 42.1233 56.2471 42.1233 56.2734V68.2941C42.1233 68.3194 42.1336 68.3437 42.1519 68.3616C42.1703 68.3795 42.1952 68.3895 42.2211 68.3895Z" fill="#005DB0"/>
<path d="M21.5553 59.4811C21.8031 62.7012 20.8205 65.4524 18.6075 67.7347C17.7782 68.5897 16.7388 68.8842 15.4896 68.6183C15.4549 68.6111 15.422 68.5972 15.3928 68.5776C15.3636 68.5579 15.3387 68.5329 15.3194 68.5038C15.1981 68.3206 15.1864 68.124 15.2842 67.9141C15.2972 67.8861 15.318 67.8623 15.3443 67.8454C15.3707 67.8285 15.4014 67.8192 15.4329 67.8187C17.4202 67.7977 17.9816 68.292 19.3587 66.5172C20.7768 64.6947 21.3949 62.17 21.3401 59.9201C21.3128 58.7751 20.9313 57.4793 20.6966 56.2694C20.6916 56.2431 20.6773 56.2194 20.6562 56.2023C20.6351 56.1852 20.6086 56.1759 20.5812 56.1759H19.3919C19.3782 56.176 19.3646 56.1732 19.3521 56.1678C19.3395 56.1623 19.3283 56.1543 19.319 56.1442C19.3098 56.1341 19.3028 56.1222 19.2985 56.1093C19.2942 56.0963 19.2927 56.0826 19.2941 56.069C19.3098 55.9393 23.0028 56.0518 23.394 56.0557C23.5883 56.0582 23.5903 56.0786 23.3999 56.1167C23.0804 56.1829 22.7628 56.1873 22.4473 56.1301C22.4339 56.1276 22.42 56.1282 22.4069 56.1319C22.3938 56.1356 22.3818 56.1423 22.3718 56.1514C22.3619 56.1605 22.3543 56.1719 22.3498 56.1844C22.3452 56.197 22.3437 56.2104 22.3456 56.2236C22.4538 57.118 22.6657 57.9793 22.9813 58.8075C23.3294 59.7235 23.4468 60.6891 23.8947 61.6032C24.1021 62.0288 24.0747 62.483 24.2586 62.878C24.5298 63.4658 24.7528 64.0694 24.9275 64.689C25.0938 65.2749 25.4537 65.8378 25.5867 66.2939C25.8306 67.1387 26.1207 67.8187 26.4572 68.334C26.4748 68.3614 26.5008 68.3829 26.5316 68.3955C26.5623 68.4081 26.5964 68.4113 26.6293 68.4046C26.954 68.3409 27.2689 68.3632 27.5741 68.4714C27.7788 68.5439 27.7716 68.5801 27.5526 68.5801H23.4449C23.4307 68.5802 23.4167 68.577 23.404 68.5707C23.3913 68.5645 23.3803 68.5554 23.3719 68.5443C23.3635 68.5331 23.358 68.5201 23.3557 68.5065C23.3534 68.4928 23.3545 68.4788 23.3588 68.4656C23.3979 68.3473 24.5559 68.3855 24.7046 68.3855C24.7313 68.3853 24.7574 68.3779 24.7801 68.3641C24.8028 68.3504 24.8211 68.3307 24.833 68.3074C24.845 68.2841 24.8501 68.258 24.8478 68.2321C24.8455 68.2061 24.8358 68.1812 24.82 68.1603C24.2312 67.3874 24.1764 66.5229 23.7833 65.6775C23.5994 65.2844 23.4572 64.9047 23.3568 64.5383C23.1475 63.7635 22.7915 63.0402 22.5861 62.2979C22.3214 61.3348 21.9882 60.3933 21.5866 59.4735C21.5605 59.415 21.5501 59.4175 21.5553 59.4811Z" fill="#005DB0"/>
<path d="M100.991 54.777C100.972 54.7376 100.942 54.7039 100.904 54.6796C100.867 54.6553 100.823 54.6412 100.778 54.6387C100.733 54.6362 100.689 54.6455 100.649 54.6656C100.609 54.6857 100.575 54.7159 100.551 54.753C100.042 55.5263 99.6302 56.2922 99.3162 57.0507C99.1452 57.464 98.8622 57.6604 98.5127 57.9087C98.4753 57.935 98.4319 57.952 98.3862 57.9582C98.3406 57.9643 98.2942 57.9595 98.251 57.9442C98.2078 57.9288 98.1693 57.9033 98.1387 57.87C98.1082 57.8367 98.0866 57.7965 98.0759 57.7531C97.9087 57.0897 99.2364 55.2014 99.5764 54.4287C99.993 53.4836 100.505 52.5904 101.111 51.7492C101.677 50.9653 102.025 50.111 102.558 49.3031C102.724 49.0536 102.953 48.9733 103.244 49.0622C103.273 49.0709 103.299 49.0857 103.321 49.1057C103.343 49.1256 103.359 49.1501 103.369 49.1771C103.49 49.4971 103.496 49.746 103.388 49.9239C102.903 50.7219 102.467 51.5459 102.078 52.3959C102.065 52.4229 102.059 52.4524 102.06 52.4819C102.061 52.5115 102.069 52.5404 102.084 52.5664C102.441 53.2427 103.086 53.0704 103.463 52.5145C104.11 51.5583 104.531 50.8523 104.726 50.3964C104.997 49.7639 105.333 49.2852 105.736 48.9603C105.758 48.942 105.785 48.9302 105.814 48.9262C105.843 48.9223 105.873 48.9264 105.899 48.9381C106.982 49.4013 105.322 51.5527 104.887 52.0679C104.87 52.0878 104.858 52.1112 104.851 52.1363C104.845 52.1615 104.844 52.1879 104.849 52.2134C104.855 52.239 104.866 52.2632 104.882 52.2842C104.898 52.3051 104.918 52.3224 104.942 52.3347C105.407 52.5738 107.324 51.8084 107.814 51.5787C107.84 51.5663 107.862 51.5474 107.878 51.524C107.894 51.5005 107.903 51.4734 107.905 51.4452C108.027 49.1092 108.133 47.5983 108.224 46.9127C108.382 45.7397 109.182 44.2665 110.678 44.0905C112.744 43.8446 114.316 44.5062 115.394 46.0751C115.907 46.82 116.029 47.5507 115.761 48.2673C115.638 48.5946 115.224 49.14 114.517 49.9035C113.998 50.4613 112.515 51.7862 112.505 52.5256C112.505 52.5441 112.51 52.5625 112.519 52.5785C112.529 52.5945 112.543 52.6076 112.56 52.6161C112.577 52.6246 112.596 52.6283 112.615 52.6267C112.634 52.6251 112.652 52.6183 112.667 52.6071C112.965 52.3922 114.002 51.3822 114.238 52.1476C114.251 52.1911 114.275 52.231 114.307 52.2642C114.339 52.2973 114.378 52.3228 114.422 52.3386C114.466 52.3544 114.512 52.3601 114.558 52.3552C114.605 52.3504 114.649 52.3351 114.688 52.3106C116.185 51.3693 117.07 50.4483 118.397 48.7917C118.741 48.363 119.041 47.8824 119.298 47.35C120.853 44.1133 122.507 41.0755 124.261 38.2366C124.485 37.8716 126.914 34.5972 127.366 36.3224C127.46 36.6807 127.483 36.9407 127.435 37.1026C126.577 40.023 125.005 42.7087 122.717 45.1597C120.749 47.2666 119.142 49.1734 118.196 51.5435C118.115 51.7461 118.091 51.9518 118.124 52.1605C118.129 52.1895 118.14 52.2169 118.158 52.2402C118.176 52.2635 118.2 52.2819 118.226 52.294C118.707 52.5089 120.057 50.7781 120.363 50.4131C121.195 49.4199 125.497 50.0091 126.732 50.2167C127.587 50.3594 128.502 50.6818 129.412 50.893C130.341 51.1098 131.296 51.4434 131.773 52.1123C132.648 53.3428 130.783 54.8345 129.729 55.3015C129.704 55.3126 129.676 55.318 129.648 55.3175C129.621 55.317 129.593 55.3105 129.568 55.2984C129.544 55.2864 129.522 55.2691 129.505 55.2478C129.487 55.2266 129.475 55.2019 129.469 55.1755C129.366 54.7326 129.959 53.9914 130.255 53.6819C130.297 53.6385 130.325 53.5836 130.335 53.5244C130.436 52.8777 129.961 52.672 129.374 52.6127C128.181 52.4904 127.074 52.4292 125.898 52.1049C124.425 51.6985 123.236 51.4205 122.329 51.2711C120.048 50.8949 118.927 53.4021 117.315 54.5695C116.984 54.8104 116.602 54.6622 116.561 54.273C116.449 53.1853 116.893 52.4607 117.341 51.5953C117.446 51.3927 117.495 51.2087 117.488 51.0431C117.486 51.0164 117.477 50.9907 117.461 50.9693C117.444 50.9479 117.422 50.9317 117.396 50.9228C117.37 50.9138 117.341 50.9126 117.314 50.9192C117.288 50.9258 117.263 50.9399 117.244 50.9597C116.401 51.8659 115.537 52.7479 114.439 53.3557C114.103 53.5429 113.829 53.5114 113.482 53.4169C113.42 53.4 113.355 53.402 113.296 53.4225C112.959 53.5398 112.663 53.722 112.407 53.9691C112.359 54.0149 112.297 54.0441 112.23 54.0525C111.682 54.1229 111.35 53.9333 111.235 53.4836C110.963 52.4125 112.378 51.045 113.13 50.2611C113.56 49.8127 113.987 49.242 114.412 48.5489C115.862 46.1881 111.911 44.5574 110.194 45.4284C108.798 46.1381 109.128 48.0078 108.984 49.2234C108.904 49.9035 108.673 50.7985 108.767 51.4638C108.771 51.492 108.785 51.5179 108.806 51.5372C108.827 51.5565 108.855 51.5679 108.883 51.5694L109.447 51.6009C109.504 51.6042 109.558 51.6288 109.597 51.6695C109.636 51.7102 109.657 51.7639 109.656 51.8196C109.647 52.5626 108.794 54.6955 107.947 54.8604C107.899 54.8697 107.849 54.8693 107.802 54.8592C107.754 54.8492 107.708 54.8296 107.669 54.8019C107.629 54.7741 107.595 54.7387 107.57 54.6977C107.545 54.6568 107.528 54.6113 107.522 54.5639C107.481 54.2687 107.473 53.9734 107.497 53.6782C107.498 53.6597 107.499 53.6417 107.501 53.6244C107.505 53.5534 107.49 53.4826 107.459 53.4184C107.427 53.3543 107.38 53.299 107.32 53.2576C107.261 53.2162 107.192 53.19 107.12 53.1816C107.047 53.1732 106.974 53.1827 106.906 53.2094C106.008 53.5664 105.085 53.8443 104.135 54.0432C104.078 54.0552 104.027 54.0852 103.989 54.1285C103.542 54.6436 102.904 56.1946 102.346 56.4244C102.194 56.4862 102.038 56.4794 101.878 56.404C101.82 56.3763 101.774 56.3314 101.745 56.2762L100.991 54.777ZM125.547 38.3923C124.011 40.6629 122.572 42.9922 121.231 45.3802C121.219 45.4008 121.215 45.4245 121.218 45.4479C121.221 45.4713 121.232 45.493 121.249 45.5099C121.266 45.5268 121.288 45.5379 121.312 45.5416C121.335 45.5452 121.36 45.5413 121.381 45.5303C121.56 45.4395 121.771 45.1152 121.864 45.0059C122.72 44.0034 126.05 39.6209 125.864 38.459C125.858 38.4254 125.842 38.3943 125.818 38.3697C125.794 38.3451 125.763 38.3281 125.728 38.3209C125.694 38.3137 125.659 38.3167 125.626 38.3294C125.594 38.3421 125.566 38.364 125.547 38.3923ZM102.75 54.0154C102.082 53.7152 101.688 54.4898 102.348 54.8753C102.362 54.8838 102.378 54.8894 102.395 54.8918C102.411 54.8943 102.428 54.8935 102.445 54.8895C102.461 54.8856 102.476 54.8785 102.489 54.8687C102.503 54.859 102.514 54.8467 102.522 54.8326L102.843 54.3101C102.858 54.2849 102.868 54.257 102.871 54.228C102.875 54.1991 102.872 54.1699 102.863 54.1421C102.855 54.1144 102.84 54.0888 102.821 54.067C102.801 54.0452 102.777 54.0276 102.75 54.0154Z" fill="#CAB59B"/>
<path d="M70.2119 62.2023C69.3597 63.5118 68.3252 64.6533 67.1083 65.6268C66.6714 65.977 65.5223 66.4199 65.3761 65.5786C65.0722 63.8293 66.5879 60.8385 68.2764 60.0824C69.0552 59.7341 70.3904 60.1251 70.9223 59.4487C71.3838 58.8631 70.928 58.3906 70.455 57.931C68.3467 55.8945 68.6715 49.9388 71.9574 49.0456C73.3592 48.6657 74.3639 49.8387 75.1959 50.7931C75.358 50.9784 75.5549 51.0247 75.7866 50.932C76.0886 50.8116 76.4457 50.302 76.7268 50.2557C77.4371 50.1389 77.0193 51.3416 76.8255 51.6177C75.829 53.0297 75.4669 54.6771 75.7391 56.5598C75.7439 56.5917 75.7555 56.6223 75.7733 56.6495C75.791 56.6767 75.8145 56.6999 75.8422 56.7176C75.8698 56.7353 75.901 56.747 75.9337 56.7521C75.9663 56.7572 75.9997 56.7554 76.0316 56.7469C76.6356 56.5857 77.1086 56.2614 77.4523 55.6963C78.4248 54.0859 79.7088 52.0216 81.3784 51.0377C81.4606 50.9886 81.5562 50.965 81.6528 50.97C81.7494 50.9749 81.8424 51.0082 81.9197 51.0655C82.1628 51.2452 82.1913 51.664 82.1172 51.9642C81.6702 53.7777 80.6718 55.2157 79.1219 56.2781C78.4495 56.7377 78.0431 57.2102 77.8094 58.0052C77.6993 58.3813 77.1617 59.4987 78.0506 59.4098C79.0725 59.3079 80.0811 58.0811 80.9339 57.5011C81.9767 56.7914 81.9501 57.7476 82.047 58.4017C82.049 58.4141 82.0536 58.4259 82.0605 58.4365C82.0673 58.447 82.0763 58.4561 82.0869 58.4631C82.0974 58.47 82.1092 58.4748 82.1217 58.477C82.1341 58.4792 82.1468 58.4788 82.159 58.4758C82.3895 58.4277 82.5763 58.3381 82.7193 58.2071C84.3857 56.7049 86.0255 55.0464 87.6387 53.2317C88.239 52.5553 89.1317 53.4781 88.3149 54.2916C87.1297 55.4677 86.0711 56.7506 85.1392 58.1404C85.1273 58.1584 85.1192 58.1785 85.1153 58.1995C85.1114 58.2206 85.1119 58.2422 85.1167 58.263C85.1215 58.2839 85.1304 58.3036 85.1431 58.3211C85.1558 58.3385 85.1719 58.3533 85.1904 58.3647C85.6634 58.6463 86.3282 58.1608 86.7783 57.7661C87.8857 56.797 89.0405 55.4646 90.446 54.9402C90.4745 54.9298 90.5049 54.926 90.5349 54.9288C90.5648 54.9317 90.5936 54.9413 90.6189 54.9569C91.4945 55.4887 90.3226 56.6191 90.0282 57.2139C90.0122 57.2456 90.0035 57.2802 90.0024 57.3154C90.0014 57.3507 90.0081 57.3858 90.0222 57.4183C90.0362 57.4507 90.0572 57.4799 90.0838 57.5038C90.1104 57.5277 90.142 57.5457 90.1763 57.5567C90.4042 57.6308 90.56 57.4937 90.7442 57.3881C91.7775 56.797 92.7652 56.002 93.1375 54.8476C93.5819 53.4689 94.3512 52.1791 95.3673 51.2285C95.8403 50.7894 97.318 50.239 97.6713 51.1192C98.0132 51.966 96.4234 53.9951 95.8954 54.4325C95.3813 54.8574 94.8653 55.2799 94.3474 55.7C93.8193 56.1262 93.6446 57.0749 94.412 57.3566C94.9305 57.5475 95.8612 57.2176 96.4291 57.049C96.7267 56.96 96.8413 57.0638 96.7729 57.3603C96.7083 57.6346 96.5127 57.6772 96.3379 57.8106C95.5915 58.3795 94.0245 58.8854 93.2932 57.9662C93.0982 57.7192 92.9197 57.4696 92.7576 57.2176C92.7479 57.2023 92.735 57.1892 92.7198 57.1791C92.7045 57.1691 92.6872 57.1623 92.669 57.1594C92.6508 57.1564 92.6322 57.1572 92.6144 57.1618C92.5966 57.1664 92.58 57.1747 92.5658 57.1861C91.9902 57.6531 89.0747 60.1214 88.7518 58.272C88.7151 58.062 88.6891 57.8785 88.6739 57.7216C88.6705 57.6816 88.6557 57.6432 88.6311 57.6109C88.6065 57.5787 88.5731 57.5538 88.5347 57.5391C88.4963 57.5244 88.4545 57.5206 88.4139 57.5279C88.3734 57.5353 88.3358 57.5536 88.3054 57.5808C87.1867 58.5741 86.4231 59.2097 84.9587 59.6081C84.0888 59.8434 84.0223 59.256 83.8951 58.6408C83.887 58.6033 83.8685 58.5687 83.8417 58.5408C83.8148 58.5128 83.7807 58.4926 83.7429 58.4823C83.7051 58.472 83.6651 58.472 83.6273 58.4823C83.5895 58.4926 83.5553 58.5128 83.5285 58.5407C82.8903 59.2059 82.0754 59.9842 81.0973 60.0361C81.0634 60.0378 81.0297 60.0306 80.9996 60.0153C80.9696 60 80.9442 59.9771 80.9263 59.949L80.5236 59.3282C80.5071 59.3029 80.4846 59.2817 80.4579 59.2662C80.4312 59.2508 80.401 59.2416 80.3698 59.2393C79.8114 59.2059 78.9813 60.025 78.6072 60.4123C78.0791 60.9552 76.8616 61.2091 76.5121 60.3919C76.2918 59.8786 76.4761 58.9465 76.5159 58.3294C76.5185 58.2899 76.5112 58.2504 76.4945 58.2143C76.4779 58.1782 76.4524 58.1467 76.4204 58.1224C76.3884 58.0981 76.3507 58.0818 76.3108 58.0749C76.2708 58.0681 76.2298 58.0708 76.1912 58.083C74.5957 58.5981 74.8863 59.4598 74.3924 60.6754C74.0676 61.4796 72.9185 64.4149 71.8682 64.4297C71.8044 64.4297 71.7431 64.408 71.6953 64.3686C71.0153 63.7886 70.9451 62.951 70.5861 62.2227C70.5693 62.1892 70.5437 62.1607 70.5119 62.1401C70.4801 62.1195 70.4432 62.1075 70.4051 62.1054C70.367 62.1033 70.329 62.1112 70.295 62.1283C70.261 62.1453 70.2323 62.1709 70.2119 62.2023ZM70.0637 54.9106C70.1435 55.7166 70.9906 57.7569 72.079 57.6753C72.109 57.673 72.1383 57.6647 72.165 57.651C72.1918 57.6373 72.2155 57.6185 72.2347 57.5956C72.8634 56.8414 73.0553 56.0298 73.5985 55.2608C74.1322 54.5047 74.8901 53.2799 74.5938 52.3478C74.2633 51.3101 72.9888 49.8739 71.7181 50.5818C70.1872 51.4379 69.9023 53.2947 70.0637 54.9106ZM94.4033 54.4466C94.4759 54.5097 94.6487 54.4573 94.8837 54.3008C95.1186 54.1443 95.3965 53.8967 95.6562 53.6123C95.9159 53.3279 96.1362 53.0301 96.2685 52.7844C96.4008 52.5387 96.4344 52.3652 96.3618 52.3021C96.2892 52.239 96.1164 52.2915 95.8814 52.4479C95.6465 52.6044 95.3685 52.8521 95.1088 53.1365C94.8491 53.4208 94.6289 53.7186 94.4966 53.9643C94.3643 54.21 94.3307 54.3835 94.4033 54.4466ZM80.8959 52.4312C80.0184 52.4349 78.6148 55.233 78.6452 55.3127C78.6564 55.34 78.6741 55.3644 78.6967 55.3838C78.7193 55.4033 78.7462 55.4173 78.7752 55.4247C78.8043 55.4321 78.8347 55.4327 78.8639 55.4264C78.8931 55.4202 78.9203 55.4072 78.9434 55.3886C79.7392 54.7475 81.1163 53.5708 81.008 52.5294C81.0047 52.5022 80.9915 52.4772 80.9708 52.4591C80.9501 52.441 80.9235 52.431 80.8959 52.4312ZM74.2386 55.8667C73.9119 55.9483 73.3307 57.3381 73.2205 57.6846C73.2169 57.6956 73.2157 57.7073 73.2172 57.7189C73.2186 57.7304 73.2226 57.7415 73.2289 57.7515C73.2352 57.7615 73.2436 57.7702 73.2536 57.7768C73.2637 57.7835 73.275 57.7881 73.287 57.7902C74.4779 57.9922 74.5083 56.7154 74.3886 55.9631C74.386 55.9466 74.3798 55.9309 74.3706 55.9169C74.3614 55.9029 74.3493 55.891 74.3351 55.8819C74.321 55.8728 74.3051 55.8667 74.2884 55.8641C74.2718 55.8615 74.2548 55.8624 74.2386 55.8667ZM71.9973 63.051C72.0295 63.0674 72.0669 63.0712 72.1019 63.0615C72.1368 63.0519 72.1667 63.0296 72.1853 62.9992C72.4494 62.573 74.3715 58.8946 73.0439 58.9669C71.8511 59.0336 71.6402 60.0843 71.2698 60.9552C71.2584 60.9821 71.2527 61.0111 71.2531 61.0404C71.2534 61.0697 71.2597 61.0987 71.2717 61.1257C71.4997 61.6464 71.5092 62.8046 71.9973 63.051ZM69.3629 61.0108C69.3136 60.9818 69.2583 60.9638 69.2008 60.958C69.1434 60.9523 69.0852 60.9589 69.0305 60.9775C67.5376 61.4908 66.9886 62.9473 66.3295 64.2407C66.305 64.2892 66.2932 64.3429 66.295 64.3969C66.2969 64.451 66.3124 64.5037 66.3403 64.5505C66.3681 64.5973 66.4073 64.6366 66.4545 64.665C66.5017 64.6934 66.5553 64.71 66.6107 64.7132C67.5053 64.7651 69.1064 62.1894 69.4692 61.4834C69.5775 61.2777 69.5699 61.1331 69.3629 61.0108Z" fill="#CAB59B"/>
<path d="M53.2181 70.6393C53.1645 70.622 53.1169 70.5904 53.0807 70.5482C53.0445 70.506 53.021 70.4548 53.0129 70.4003C52.8439 69.1939 54.3748 66.6867 55.0453 65.6527C55.4935 64.9597 55.334 64.3482 55.1441 63.5921C54.8212 62.3098 56.599 62.8064 56.7889 62.1171C57.7101 58.7705 59.355 55.5499 60.7036 52.3441C61.0784 51.4546 61.6912 50.7801 62.5422 50.3205C62.6011 50.2895 62.669 50.2796 62.734 50.2927L63.4349 50.4336C63.4633 50.4393 63.4929 50.4379 63.5207 50.4295C63.5486 50.421 63.574 50.4059 63.5944 50.3854C63.9154 50.0648 64.5574 49.1086 65.019 49.8313C65.1646 50.0574 65.1538 50.3755 64.9867 50.7856C63.5089 54.409 61.9546 58.0015 60.3237 61.563C60.04 62.1807 59.8862 63.0109 59.8621 64.0535C59.8615 64.0828 59.8548 64.1117 59.8424 64.1384C59.83 64.1652 59.8122 64.1893 59.7899 64.2092C59.1537 64.7781 58.7548 65.2191 58.468 66.0678C58.2097 66.8288 57.9191 67.5768 57.5962 68.3119C57.4499 68.6454 56.7015 69.496 56.3141 69.1142C55.8468 68.6565 56.6465 66.9573 56.4242 66.2791C56.413 66.2446 56.3924 66.2138 56.3646 66.1898C56.3368 66.1659 56.3029 66.1497 56.2665 66.1431C56.2301 66.1364 56.1925 66.1395 56.1577 66.152C56.1229 66.1646 56.0923 66.1861 56.0691 66.2142C55.2732 67.1759 54.8838 68.4935 54.466 69.6498C54.2931 70.1316 53.8677 70.8487 53.2181 70.6393ZM62.8992 51.5936C62.3541 51.5324 61.9571 52.3867 61.7463 52.7925C60.3712 55.4238 59.0954 58.0997 57.9191 60.82C57.7234 61.2702 57.1023 63.0659 58.1394 63.0547C59.469 63.0418 62.3256 54.9698 62.8138 53.6412C63.0436 53.0186 63.1196 52.4534 63.112 51.8252C63.1115 51.768 63.0896 51.7129 63.0504 51.6702C63.0113 51.6276 62.9575 51.6003 62.8992 51.5936ZM57.6436 65.8881C57.8703 65.4767 57.9083 65.0455 57.7576 64.5946C57.7475 64.5629 57.7254 64.536 57.6958 64.5195C57.6662 64.503 57.6313 64.4981 57.5981 64.5057L57.1726 64.602C57.1375 64.6095 57.1058 64.628 57.0822 64.6547C57.0585 64.6814 57.0443 64.7149 57.0415 64.7503C57.0244 64.9782 57.0662 66.1456 57.581 65.9437C57.6079 65.9329 57.6301 65.9132 57.6436 65.8881Z" fill="#CAB59B"/>
<path d="M61.7444 64.1015C62.4225 64.1812 62.3408 64.8928 62.0122 65.2912C61.6539 65.726 61.2126 65.9781 60.6883 66.0472C60.663 66.0504 60.6374 66.0437 60.6168 66.0285C60.5963 66.0132 60.5824 65.9908 60.5782 65.9657C60.4699 65.2931 60.8498 63.9959 61.7444 64.1015Z" fill="#CAB59B"/>
</svg>
