<svg width="105" height="107" fill="none" xmlns="http://www.w3.org/2000/svg"><path d="M83.903 31.929c1.401-.243 3.007-.675 4.243-.929 1.732-.355 3.482-.713 5.25-1.073a.068.068 0 0 1 .063.02.063.063 0 0 1 .015.062c-.9 3.223-1.869 6.425-2.906 9.606-.175.538-.33.92-.858 1.217a408.105 408.105 0 0 1-5.61 3.078.076.076 0 0 0-.038.09.075.075 0 0 0 .082.051l4.475-.426a.055.055 0 0 1 .062.054c0 .01-.003.02-.009.03-3.471 5.981-9.053 8.779-15.789 9.409-.73.068-1.46.506-1.76 1.252-.988 2.447-1.815 5.415-2.503 7.821-1.128 3.956-1.884 7.567-2.996 11.33a.195.195 0 0 1-.38-.046c-.094-2.202.357-4.438.676-6.63.28-1.914.776-4.066 1.245-6.027a188.275 188.275 0 0 1 3.637-13.074c.468-1.47.975-2.852 1.522-4.148C79.296 27.062 90.833 12.226 103.92.1c.177-.165.285-.128.325.113.163 1.001-.622 3.115-1.206 3.962a45.192 45.192 0 0 0-5.252 10.157c-.367 1.004-.566 2.789-1.85 3.045a14.133 14.133 0 0 0-3.242 1.064c-.12.056-.114.086.018.09l3.465.133a.085.085 0 0 1 .065.035.085.085 0 0 1 .012.073c-.303 1.044-.482 2.154-.78 3.147-.4 1.33-.734 2.675-1.002 4.036-.383 1.937-2.397 2.29-3.952 2.952-2.171.924-4.396 1.868-6.674 2.83a.1.1 0 0 0 .056.19Z" fill="#CBB59C"/><path d="M76.857 22.192a.177.177 0 0 0 .343.049c.802-2.257 1.596-4.44 2.381-6.548.584-1.563 1.635-2.45 2.897-3.565a88.393 88.393 0 0 1 5.062-4.18A50.993 50.993 0 0 1 101.445.44c.069-.025.075-.015.018.031-3.353 2.674-6.292 5.434-8.817 8.28-2.258 2.547-4.608 5.742-6.99 8.544-1.081 1.274-2.251 2.598-3.213 3.866-6.926 9.12-11.605 19.362-14.035 30.728a.126.126 0 0 1-.098.1.131.131 0 0 1-.133-.049c-.634-.818-1.03-1.663-1.326-2.715-1.183-4.199-1.197-8.417-.044-12.656.019-.072.04-.073.066-.002.49 1.402.85 2.835 1.081 4.299a.743.743 0 0 0 .181.254.135.135 0 0 0 .208-.108c.15-2.847.258-5.69.328-8.532.05-2.065.623-3.129 1.744-5.125a62.491 62.491 0 0 1 5.743-8.5c.114-.144.213-.246.299-.308a.13.13 0 0 1 .208.097l.192 3.55Z" fill="#CBB59C"/><path d="M40.85 34.5c1.63-1.275 3.702-2.454 5.813-2.536 2.157-.082 3.313.281 5.29 1.378.358.199.593.615 1.072.772a.242.242 0 0 1 .149.132c.223.515.652.684.924 1.084 1.01 1.488 1.742 3.034 1.986 4.85 1.103 8.217-4.22 17.34-12.346 19.69-1.851.532-3.786.56-5.672.366-1.088-.11-2.037-.581-3.065-1.002a.272.272 0 0 1-.153-.34l.283-.812a.113.113 0 0 1 .061-.066.118.118 0 0 1 .092-.002c2.185.89 3.903 1.48 6.16.995 7.356-1.577 12.957-10.679 12.16-17.897-.191-1.744-.42-2.837-1.13-4.325-.82-1.716-2.127-3.286-4.041-3.79-2.975-.785-5.947.626-7.895 2.912-.175.204-.367.285-.615.241a.138.138 0 0 1-.08-.046.134.134 0 0 1-.033-.087c.005-1.295.328-2.611.542-3.887.308-1.807.535-4.022.905-6.03.323-1.752.473-3.645.827-5.462.362-1.854.477-3.762.875-5.635a.13.13 0 0 1 .045-.073.125.125 0 0 1 .08-.029H54.88a.18.18 0 0 0 .175-.134l.404-1.493a.19.19 0 0 1 .184-.142h.502a.116.116 0 0 1 .112.135 30.375 30.375 0 0 1-.99 3.956.162.162 0 0 1-.153.11H43.523a.114.114 0 0 0-.077.03.118.118 0 0 0-.038.075c-.252 2.213-.69 4.241-1.004 6.59-.23 1.705-.663 3.59-.847 5.484-.159 1.652-.566 3.286-.78 4.947-.01.073.014.087.073.042ZM31.578 56.028l-.173.276a.389.389 0 0 1-.141.14 1.15 1.15 0 0 0-.553.712.238.238 0 0 1-.133.157c-.345.16-.6.411-.765.752a.283.283 0 0 1-.135.132 2.197 2.197 0 0 0-.752.551c-.544.615-1.519 1.185-2.242 1.555-2.052 1.043-4.128 1.295-6.227.756-4.95-1.27-7.51-5.61-7.848-10.47-.226-3.232.002-6.502 1.247-9.585 1.262-3.129 3.368-6.099 6.338-7.755 4.502-2.51 9.254-1.29 12.01 3.078 1.09 1.727 1.833 4.12 2.078 6.086a38.22 38.22 0 0 1-.168 10.855c-.177 1.104-.524 2.203-.758 3.408-.157.81-.558 1.521-.735 2.289-.22.955-.621 1.651-.97 2.485-1.469 3.523-3.614 6.858-6.044 9.794-2.309 2.789-4.708 5.555-7.585 7.78-.838.645-2.424.676-2.523-.697-.102-1.433 1.5-1.711 2.437-2.213 5.252-2.813 9.336-8.282 11.718-13.624l.696-1.56c.41-.917.615-1.97.982-2.954.246-.657.294-1.258.33-1.922.006-.117-.022-.126-.084-.026Zm-1.456-21.12c-1.857-2.245-4.752-3.03-7.5-2.06-3.413 1.206-5.55 4.706-6.705 7.942-.438 1.234-.699 2.653-.982 4.009-.635 3.05-.38 5.486.402 8.478.425 1.617 1.23 3.386 2.176 4.544 2.894 3.546 6.224 4.04 9.99 1.48.472-.323.724-.83 1.284-1.15a.269.269 0 0 0 .124-.157c.137-.489.56-.657.782-1 3.028-4.615 3.393-9.776 2.864-15.185-.228-2.348-.895-5.042-2.435-6.902ZM47.493 78.133c1.455.017 2.91.037 4.367.057 2.03.029 1.862-1.67 2.15-3.038.061-.294.093-.29.095.01l.026 4.052a.074.074 0 0 1-.017.053.074.074 0 0 1-.05.027.074.074 0 0 1-.079-.067c-.13-.699-.573-.86-1.258-.86-2.828.001-5.654 0-8.478-.002a.077.077 0 0 1-.076-.1l.02-.066a.072.072 0 0 1 .026-.035.068.068 0 0 1 .04-.014l1.438-.006a.137.137 0 0 0 .137-.137V64.139a.135.135 0 0 0-.13-.135l-1.464-.044a.048.048 0 0 1-.04-.024.05.05 0 0 1-.002-.047l.033-.055c.001-.004.004-.007.009-.007h8.668a.53.53 0 0 0 .456-.258l.362-.613a.066.066 0 0 1 .122.033c0 .394.049 4.005-.064 4.036a.095.095 0 0 1-.079-.013.091.091 0 0 1-.038-.069C53.578 65.581 53.44 64 51.85 64a611.037 611.037 0 0 1-4.34-.02.124.124 0 0 0-.091.036.125.125 0 0 0-.038.09v6.022a.128.128 0 0 0 .128.128c1.714.009 2.105-.075 2.032-1.833a.105.105 0 0 1 .07-.104l.061-.023a.054.054 0 0 1 .049.007.053.053 0 0 1 .022.044l.009 4.324a.105.105 0 0 1-.035.078.105.105 0 0 1-.083.026c-.123-.016-.128-1.385-.145-1.6a.312.312 0 0 0-.102-.203c-.522-.468-1.154-.628-1.895-.477a.138.138 0 0 0-.11.134v7.393a.11.11 0 0 0 .11.11ZM60.263 78.146h1.307a.126.126 0 0 1 .124.106l.006.055a.055.055 0 0 1-.012.042.049.049 0 0 1-.038.018h-4.66a.1.1 0 0 1-.097-.117c.031-.153 1.322-.115 1.532-.133a.133.133 0 0 0 .124-.133v-13.83a.13.13 0 0 0-.123-.13c-2.915-.161-3.547-.192-3.773 2.917a.091.091 0 0 1-.108.084c-.15-.03-.08-3.547-.076-3.936a.094.094 0 0 1 .067-.088.092.092 0 0 1 .04-.003l.062.009c.026.003.05.014.07.032a.13.13 0 0 1 .038.067c.11.505.38.721.915.721 2.512.002 5.024.001 7.534-.002.376 0 .667-.24.872-.72.034-.08.051-.077.053.008l.05 3.755c.002.143-.01.145-.037.004-.177-.946-.15-1.996-.988-2.624-.593-.445-2.134-.25-2.877-.257a.115.115 0 0 0-.115.115v13.93a.11.11 0 0 0 .11.11ZM36.9 67.823c.28 3.732-.83 6.92-3.332 9.564-.938.991-2.113 1.332-3.525 1.024a.305.305 0 0 1-.193-.133.673.673 0 0 1-.04-.683.189.189 0 0 1 .169-.11c2.246-.025 2.881.548 4.438-1.508 1.603-2.112 2.302-5.038 2.24-7.645-.031-1.327-.462-2.828-.728-4.23a.133.133 0 0 0-.13-.109h-1.345a.108.108 0 0 1-.082-.037.111.111 0 0 1-.028-.087c.018-.15 4.193-.02 4.635-.015.22.003.222.026.007.07-.362.077-.72.083-1.077.016a.098.098 0 0 0-.086.025.098.098 0 0 0-.03.084c.123 1.036.363 2.034.72 2.994.393 1.061.526 2.18 1.032 3.24.234.492.203 1.019.411 1.477.307.68.559 1.38.756 2.098.188.679.595 1.331.746 1.86.275.979.604 1.767.984 2.364a.183.183 0 0 0 .194.082 1.946 1.946 0 0 1 1.069.077c.23.084.223.126-.025.126h-4.644a.102.102 0 0 1-.097-.133c.044-.137 1.353-.093 1.521-.093a.163.163 0 0 0 .162-.177.163.163 0 0 0-.031-.084c-.666-.895-.728-1.897-1.172-2.876a8.438 8.438 0 0 1-.482-1.32c-.237-.898-.64-1.736-.871-2.597a24.604 24.604 0 0 0-1.13-3.273c-.03-.067-.042-.064-.036.01Z" fill="#005DB0"/><path d="M55.874 87.475a.295.295 0 0 0-.513-.028 16.59 16.59 0 0 0-1.438 2.742c-.199.493-.528.727-.935 1.024a.33.33 0 0 1-.435-.046.323.323 0 0 1-.074-.14c-.194-.792 1.351-3.045 1.747-3.967a17.694 17.694 0 0 1 1.787-3.198c.659-.935 1.064-1.955 1.685-2.919.193-.298.46-.393.798-.287a.23.23 0 0 1 .146.137c.14.382.148.679.022.891a28.768 28.768 0 0 0-1.525 2.95.232.232 0 0 0 .006.203c.416.807 1.168.602 1.606-.062.753-1.14 1.243-1.983 1.47-2.527.316-.755.708-1.326 1.177-1.714a.18.18 0 0 1 .19-.026c1.26.552-.672 3.12-1.179 3.735a.208.208 0 0 0 .064.318c.542.285 2.773-.628 3.344-.902a.191.191 0 0 0 .106-.16c.141-2.787.265-4.59.371-5.408.184-1.4 1.115-3.158 2.858-3.368 2.404-.294 4.234.496 5.49 2.368.597.889.74 1.761.427 2.616-.143.39-.626 1.042-1.448 1.953-.604.665-2.331 2.246-2.342 3.129a.117.117 0 0 0 .127.12.118.118 0 0 0 .06-.023c.348-.257 1.555-1.462 1.83-.548a.355.355 0 0 0 .373.248.346.346 0 0 0 .15-.054c1.743-1.123 2.774-2.222 4.32-4.2.399-.51.748-1.084 1.048-1.72a118.398 118.398 0 0 1 5.778-10.875c.26-.436 3.09-4.343 3.615-2.284.11.427.136.738.08.93-.998 3.486-2.829 6.69-5.493 9.616-2.29 2.514-4.162 4.79-5.263 7.618a1.406 1.406 0 0 0-.084.736.214.214 0 0 0 .12.16c.559.256 2.131-1.81 2.487-2.245.969-1.186 5.977-.482 7.415-.235.995.17 2.06.555 3.12.808 1.081.258 2.194.656 2.749 1.455 1.02 1.468-1.152 3.248-2.38 3.805a.218.218 0 0 1-.303-.15c-.119-.528.57-1.413.916-1.782a.358.358 0 0 0 .093-.188c.117-.772-.436-1.018-1.12-1.088-1.388-.146-2.677-.22-4.046-.606-1.715-.485-3.1-.817-4.155-.995-2.656-.45-3.96 2.543-5.838 3.936-.385.287-.83.11-.878-.354-.13-1.298.387-2.163.909-3.195.122-.242.18-.462.17-.66a.16.16 0 0 0-.107-.143.164.164 0 0 0-.176.044c-.982 1.081-1.988 2.134-3.266 2.86-.391.223-.71.185-1.115.072a.36.36 0 0 0-.216.007c-.392.14-.737.358-1.035.652a.36.36 0 0 1-.206.1c-.638.084-1.024-.142-1.159-.679-.316-1.278 1.332-2.91 2.207-3.846.5-.535.998-1.216 1.493-2.043 1.687-2.817-2.912-4.763-4.911-3.724-1.626.847-1.24 3.078-1.409 4.53-.093.81-.363 1.879-.252 2.673.004.033.02.064.045.087a.143.143 0 0 0 .09.039l.657.037a.26.26 0 0 1 .243.261c-.011.887-1.004 3.432-1.99 3.629a.418.418 0 0 1-.496-.354 4.972 4.972 0 0 1-.024-1.12.506.506 0 0 0-.692-.496c-1.045.426-2.12.757-3.227.995a.312.312 0 0 0-.17.102c-.52.614-1.263 2.465-1.913 2.74a.637.637 0 0 1-.544-.025.34.34 0 0 1-.154-.153l-.878-1.788Zm28.588-19.552a118.517 118.517 0 0 0-5.024 8.339.13.13 0 0 0 .093.192.13.13 0 0 0 .081-.013c.208-.108.454-.495.562-.626.997-1.196 4.874-6.426 4.657-7.813a.203.203 0 0 0-.37-.08Zm-26.54 18.644c-.779-.359-1.237.566-.47 1.026a.148.148 0 0 0 .204-.051l.374-.624a.251.251 0 0 0-.027-.29.244.244 0 0 0-.082-.061ZM20.039 96.336a17.102 17.102 0 0 1-3.614 4.087c-.508.418-1.846.946-2.016-.058-.354-2.087 1.41-5.656 3.376-6.558.907-.416 2.462.05 3.08-.757.538-.698.007-1.262-.543-1.81-2.455-2.431-2.077-9.538 1.749-10.604 1.632-.453 2.802.946 3.77 2.085.189.221.418.277.688.166.352-.144.767-.752 1.095-.807.827-.14.34 1.296.115 1.625-1.16 1.685-1.582 3.651-1.265 5.898a.273.273 0 0 0 .34.223c.703-.192 1.254-.58 1.654-1.254 1.133-1.921 2.628-4.385 4.571-5.559a.557.557 0 0 1 .63.033c.284.215.317.714.23 1.073-.52 2.164-1.682 3.88-3.487 5.148-.783.548-1.256 1.112-1.528 2.06-.128.45-.754 1.783.281 1.677 1.19-.122 2.364-1.586 3.357-2.278 1.214-.847 1.183.294 1.296 1.075a.11.11 0 0 0 .046.073.105.105 0 0 0 .084.015c.268-.057.486-.164.652-.32a74.768 74.768 0 0 0 5.728-5.938c.699-.807 1.738.294.787 1.265a29.811 29.811 0 0 0-3.697 4.593.193.193 0 0 0 .06.268c.55.336 1.324-.244 1.848-.715 1.29-1.156 2.634-2.746 4.27-3.372a.23.23 0 0 1 .201.02c1.02.635-.344 1.984-.687 2.693a.295.295 0 0 0 .172.41c.266.088.447-.076.661-.202 1.203-.705 2.353-1.654 2.787-3.031.517-1.646 1.413-3.185 2.596-4.32.55-.523 2.27-1.18 2.682-.13.398 1.01-1.453 3.432-2.067 3.954-.599.507-1.2 1.012-1.803 1.513-.614.508-.818 1.64.076 1.977.603.227 1.687-.166 2.348-.367.346-.106.48.017.4.371-.075.327-.303.378-.506.537-.87.68-2.694 1.283-3.545.186a11.38 11.38 0 0 1-.624-.893.15.15 0 0 0-.223-.038c-.67.558-4.064 3.503-4.44 1.296a8.995 8.995 0 0 1-.091-.657.257.257 0 0 0-.429-.168c-1.303 1.186-2.191 1.944-3.896 2.42-1.013.28-1.09-.42-1.239-1.155a.249.249 0 0 0-.427-.12c-.742.795-1.691 1.723-2.83 1.785a.221.221 0 0 1-.2-.104l-.468-.74a.228.228 0 0 0-.179-.107c-.65-.04-1.616.938-2.052 1.4-.615.648-2.032.951-2.44-.024-.256-.613-.041-1.725.005-2.461a.29.29 0 0 0-.239-.304.288.288 0 0 0-.139.01c-1.858.614-1.52 1.643-2.094 3.093-.378.96-1.716 4.463-2.939 4.48a.312.312 0 0 1-.201-.073c-.792-.692-.874-1.691-1.292-2.56a.25.25 0 0 0-.435-.025Zm-.173-8.701c.093.962 1.08 3.396 2.346 3.3a.26.26 0 0 0 .182-.096c.732-.9.955-1.869 1.588-2.786.621-.903 1.503-2.364 1.158-3.477-.384-1.238-1.868-2.952-3.348-2.107-1.782 1.022-2.114 3.238-1.926 5.166Zm28.337-.554c.085.075.286.013.56-.174.273-.187.597-.482.9-.822.302-.339.558-.694.712-.987.154-.294.193-.5.108-.576-.084-.075-.285-.013-.559.174a5.292 5.292 0 0 0-.9.822c-.302.339-.558.694-.712.988-.154.293-.193.5-.109.575Zm-15.725-2.405c-1.022.004-2.656 3.343-2.62 3.439a.225.225 0 0 0 .254.135.22.22 0 0 0 .092-.045c.927-.765 2.53-2.17 2.404-3.412a.134.134 0 0 0-.043-.084.13.13 0 0 0-.087-.033Zm-7.751 4.1c-.38.097-1.057 1.756-1.186 2.17a.096.096 0 0 0 .01.079.102.102 0 0 0 .068.046c1.386.241 1.422-1.282 1.282-2.18a.143.143 0 0 0-.116-.118.137.137 0 0 0-.058.003Zm-2.61 8.573a.166.166 0 0 0 .22-.062c.307-.508 2.545-4.898.999-4.812-1.389.08-1.634 1.334-2.066 2.373a.258.258 0 0 0 .003.204c.265.621.276 2.003.844 2.297Zm-3.067-2.434a.456.456 0 0 0-.387-.04c-1.738.612-2.377 2.35-3.144 3.894a.39.39 0 0 0 .327.564c1.042.062 2.906-3.012 3.328-3.855.126-.245.117-.418-.124-.563ZM.254 106.405a.36.36 0 0 1-.239-.286c-.197-1.439 1.586-4.431 2.366-5.665.522-.827.336-1.557.115-2.46-.376-1.53 1.694-.937 1.915-1.76C5.484 92.242 7.4 88.399 8.97 84.573a4.738 4.738 0 0 1 2.14-2.415.329.329 0 0 1 .224-.033l.816.168a.2.2 0 0 0 .186-.057c.373-.383 1.12-1.524 1.658-.662.17.27.157.65-.038 1.14a336.638 336.638 0 0 1-5.428 12.86c-.33.738-.51 1.728-.538 2.973a.259.259 0 0 1-.084.185c-.74.68-1.205 1.206-1.539 2.218-.3.908-.639 1.801-1.015 2.678-.17.398-1.042 1.413-1.493.958-.544-.546.387-2.574.129-3.384a.235.235 0 0 0-.07-.106.236.236 0 0 0-.24-.045.236.236 0 0 0-.104.074c-.926 1.148-1.38 2.72-1.866 4.1-.201.575-.697 1.431-1.453 1.181Zm11.271-22.729c-.635-.073-1.097.947-1.342 1.431a146.2 146.2 0 0 0-4.456 9.58c-.228.537-.95 2.68.256 2.667 1.548-.016 4.874-9.648 5.443-11.234.267-.743.356-1.418.347-2.167a.28.28 0 0 0-.248-.277Zm-6.119 17.059a1.895 1.895 0 0 0 .133-1.544.157.157 0 0 0-.186-.106l-.495.115a.194.194 0 0 0-.153.177c-.02.272.03 1.665.628 1.424a.144.144 0 0 0 .073-.066ZM10.18 98.603c.79.095.695.944.312 1.42-.417.519-.93.819-1.54.902a.11.11 0 0 1-.084-.023.116.116 0 0 1-.045-.074c-.126-.803.316-2.351 1.358-2.225Z" fill="#CBB59C"/></svg>