<svg width="163" height="166" fill="none" xmlns="http://www.w3.org/2000/svg"><path d="M130.84 49.79c2.186-.379 4.69-1.051 6.617-1.448 2.702-.554 5.431-1.111 8.187-1.672a.104.104 0 0 1 .123.076.1.1 0 0 1-.002.051 362.327 362.327 0 0 1-4.532 14.98c-.272.838-.513 1.435-1.338 1.897a637.571 637.571 0 0 1-8.748 4.8.117.117 0 0 0 .069.22l6.979-.665a.087.087 0 0 1 .083.04c.008.014.013.03.013.046a.083.083 0 0 1-.013.045c-5.414 9.328-14.118 13.69-24.622 14.674-1.138.106-2.276.79-2.745 1.951-1.541 3.818-2.831 8.446-3.903 12.197-1.759 6.17-2.938 11.801-4.673 17.67a.305.305 0 0 1-.125.166.298.298 0 0 1-.202.046.302.302 0 0 1-.266-.284c-.145-3.435.559-6.921 1.055-10.339.438-2.986 1.211-6.341 1.942-9.4a293.894 293.894 0 0 1 5.672-20.387 75.438 75.438 0 0 1 2.373-6.47c10.873-25.783 28.863-48.919 49.271-67.827.276-.257.445-.199.507.176.255 1.562-.969 4.859-1.879 6.18a70.376 70.376 0 0 0-8.19 15.838c-.573 1.566-.883 4.349-2.887 4.749-1.754.35-3.439.902-5.055 1.659-.186.087-.177.134.027.141l5.404.207a.133.133 0 0 1 .125.11c.003.02.002.04-.004.059-.473 1.628-.752 3.359-1.217 4.907a66.911 66.911 0 0 0-1.563 6.293c-.596 3.021-3.738 3.573-6.162 4.604a4320.89 4320.89 0 0 1-10.407 4.414.156.156 0 0 0-.024.276c.033.02.072.028.11.02Z" fill="#CBB59C"/><path d="M119.853 34.607a.275.275 0 0 0 .417.218.276.276 0 0 0 .118-.142 692.88 692.88 0 0 1 3.714-10.21c.91-2.439 2.548-3.822 4.517-5.56 2.8-2.476 5.431-4.648 7.893-6.517A79.527 79.527 0 0 1 158.196.685c.108-.04.117-.023.028.048-5.228 4.17-9.811 8.474-13.749 12.911-3.521 3.973-7.187 8.956-10.901 13.325-1.686 1.986-3.51 4.052-5.01 6.028-10.801 14.221-18.096 30.194-21.887 47.92a.201.201 0 0 1-.152.154.204.204 0 0 1-.207-.075c-.99-1.276-1.607-2.594-2.069-4.235-1.844-6.548-1.867-13.126-.069-19.735.03-.113.064-.114.103-.004a38.517 38.517 0 0 1 1.687 6.704c.014.083.214.355.282.396a.212.212 0 0 0 .292-.064.215.215 0 0 0 .033-.105c.232-4.439.402-8.874.51-13.304.079-3.22.972-4.88 2.721-7.993a97.537 97.537 0 0 1 8.955-13.256c.177-.223.333-.383.466-.48a.201.201 0 0 1 .207-.02.2.2 0 0 1 .082.07c.021.03.033.066.035.103l.3 5.534Z" fill="#CBB59C"/><path d="M63.702 53.801c2.542-1.99 5.773-3.828 9.066-3.955 3.362-.128 5.166.438 8.249 2.148.559.31.924.959 1.672 1.204a.38.38 0 0 1 .231.206c.349.804 1.018 1.066 1.442 1.69 1.576 2.321 2.717 4.731 3.097 7.563 1.72 12.814-6.58 27.042-19.253 30.705-2.886.83-5.904.875-8.845.572-1.697-.172-3.176-.907-4.78-1.562a.423.423 0 0 1-.238-.531l.442-1.266a.179.179 0 0 1 .166-.12c.024 0 .049.004.072.013 3.407 1.39 6.086 2.307 9.607 1.552 11.47-2.459 20.204-16.652 18.963-27.908-.3-2.72-.655-4.424-1.762-6.745-1.28-2.676-3.318-5.125-6.304-5.91-4.638-1.225-9.273.975-12.31 4.54-.273.318-.573.446-.96.377a.215.215 0 0 1-.125-.073.21.21 0 0 1-.05-.134c.006-2.021.51-4.073.844-6.063.48-2.817.835-6.272 1.41-9.404.504-2.73.739-5.683 1.29-8.517.566-2.89.745-5.866 1.366-8.787a.202.202 0 0 1 .07-.114.195.195 0 0 1 .123-.044h18.398a.283.283 0 0 0 .272-.21l.631-2.328a.296.296 0 0 1 .286-.221h.783a.18.18 0 0 1 .176.21 47.367 47.367 0 0 1-1.545 6.17.247.247 0 0 1-.238.172H67.871a.178.178 0 0 0-.12.046.185.185 0 0 0-.059.116c-.393 3.452-1.076 6.614-1.566 10.276-.358 2.66-1.034 5.6-1.32 8.552-.248 2.576-.883 5.125-1.217 7.715-.017.114.021.136.113.065ZM49.243 87.372l-.269.43a.606.606 0 0 1-.22.218c-.437.25-.725.62-.863 1.11a.373.373 0 0 1-.207.245c-.538.25-.935.642-1.193 1.173a.442.442 0 0 1-.21.207c-.455.204-.846.49-1.173.858-.848.959-2.369 1.849-3.496 2.425-3.2 1.627-6.437 2.02-9.711 1.179-7.718-1.98-11.711-8.749-12.239-16.328-.351-5.038.004-10.139 1.945-14.946 1.97-4.88 5.252-9.51 9.884-12.094 7.02-3.913 14.431-2.01 18.728 4.8 1.7 2.694 2.859 6.425 3.242 9.49.717 5.71.63 11.352-.263 16.93-.276 1.72-.817 3.434-1.182 5.313-.245 1.262-.87 2.373-1.145 3.57-.345 1.489-.97 2.575-1.514 3.875-2.29 5.494-5.635 10.694-9.425 15.273-3.6 4.349-7.342 8.663-11.828 12.132-1.307 1.007-3.78 1.055-3.934-1.086-.16-2.235 2.337-2.669 3.8-3.452 8.19-4.387 14.559-12.914 18.273-21.246.36-.81.723-1.62 1.086-2.431.638-1.431.959-3.073 1.531-4.607.383-1.024.459-1.962.514-2.997.01-.184-.034-.198-.131-.041Zm-2.269-32.936c-2.897-3.5-7.41-4.725-11.697-3.21-5.321 1.879-8.656 7.337-10.456 12.383-.683 1.924-1.09 4.138-1.53 6.252-.99 4.755-.594 8.555.627 13.22.662 2.522 1.917 5.28 3.393 7.087 4.513 5.53 9.705 6.298 15.577 2.307.738-.503 1.13-1.293 2.003-1.793a.42.42 0 0 0 .193-.245c.214-.762.873-1.024 1.221-1.558 4.72-7.197 5.29-15.246 4.466-23.68-.355-3.663-1.397-7.863-3.797-10.763ZM74.061 121.842c2.27.028 4.54.058 6.811.09 3.166.045 2.904-2.604 3.352-4.738.096-.458.146-.452.148.017l.042 6.317a.115.115 0 0 1-.061.112.127.127 0 0 1-.043.013.133.133 0 0 1-.044-.005.136.136 0 0 1-.04-.021.114.114 0 0 1-.04-.078c-.203-1.09-.893-1.341-1.962-1.341-4.41.002-8.817.001-13.221-.004a.12.12 0 0 1-.098-.048.118.118 0 0 1-.02-.107l.031-.103a.112.112 0 0 1 .04-.056.111.111 0 0 1 .064-.02l2.241-.011a.214.214 0 0 0 .214-.213v-21.625a.21.21 0 0 0-.203-.21l-2.283-.07a.076.076 0 0 1-.066-.11l.052-.086c.002-.007.007-.01.014-.01h13.518a.828.828 0 0 0 .71-.404l.566-.955a.103.103 0 0 1 .19.051c0 .614.075 6.245-.1 6.294a.153.153 0 0 1-.065.003.154.154 0 0 1-.059-.024.135.135 0 0 1-.042-.047.136.136 0 0 1-.017-.06c-.138-2.124-.352-4.59-2.832-4.59a950.63 950.63 0 0 1-6.769-.03.197.197 0 0 0-.2.196v9.39c0 .053.021.104.059.141a.198.198 0 0 0 .141.059c2.672.014 3.283-.117 3.17-2.859a.164.164 0 0 1 .026-.099.164.164 0 0 1 .08-.063l.097-.034a.075.075 0 0 1 .039-.004.094.094 0 0 1 .036.014.084.084 0 0 1 .035.069l.014 6.742a.161.161 0 0 1-.115.156.159.159 0 0 1-.068.006c-.193-.024-.2-2.159-.228-2.494a.486.486 0 0 0-.158-.317c-.814-.731-1.8-.979-2.956-.745a.213.213 0 0 0-.172.211v11.528c0 .046.018.089.05.122.033.032.077.05.122.05ZM93.976 121.863h2.038a.197.197 0 0 1 .193.165l.01.087a.085.085 0 0 1-.046.086.076.076 0 0 1-.033.007h-7.266a.149.149 0 0 1-.065-.015.165.165 0 0 1-.053-.041.156.156 0 0 1-.033-.127c.048-.238 2.062-.179 2.39-.207a.206.206 0 0 0 .193-.207v-21.566a.204.204 0 0 0-.194-.204c-4.545-.251-5.53-.3-5.883 4.549a.141.141 0 0 1-.169.131c-.234-.049-.124-5.532-.117-6.139a.146.146 0 0 1 .051-.108.146.146 0 0 1 .115-.033l.096.014c.04.005.079.022.109.05.03.028.051.065.06.105.173.786.593 1.124 1.428 1.124 3.917.003 7.834.001 11.749-.003.586 0 1.039-.375 1.358-1.124.053-.124.08-.12.083.013l.08 5.856c.002.223-.018.225-.059.007-.276-1.476-.235-3.114-1.542-4.094-.924-.693-3.327-.39-4.486-.4a.18.18 0 0 0-.18.18v21.721c0 .046.019.09.051.122a.17.17 0 0 0 .122.051ZM57.543 105.766c.437 5.818-1.295 10.79-5.197 14.914-1.462 1.545-3.294 2.077-5.496 1.597a.466.466 0 0 1-.3-.207c-.214-.331-.235-.686-.062-1.066a.299.299 0 0 1 .106-.124c.046-.03.1-.047.156-.048 3.503-.038 4.493.855 6.92-2.352 2.5-3.293 3.59-7.855 3.494-11.921-.048-2.069-.72-4.411-1.135-6.597a.207.207 0 0 0-.203-.169h-2.097a.168.168 0 0 1-.128-.057.177.177 0 0 1-.044-.136c.027-.235 6.538-.031 7.228-.024.342.004.346.041.01.11a4.259 4.259 0 0 1-1.68.024.153.153 0 0 0-.171.098.152.152 0 0 0-.008.071c.191 1.616.565 3.173 1.121 4.669.614 1.656.82 3.401 1.61 5.052.366.769.318 1.59.642 2.304a22.517 22.517 0 0 1 1.18 3.272c.293 1.059.927 2.076 1.161 2.901.43 1.526.942 2.755 1.535 3.686a.29.29 0 0 0 .303.128 3.04 3.04 0 0 1 1.666.12c.361.131.348.197-.038.197h-7.242a.159.159 0 0 1-.152-.207c.07-.214 2.111-.145 2.373-.145a.26.26 0 0 0 .133-.038.258.258 0 0 0 .12-.239.257.257 0 0 0-.05-.13c-1.037-1.396-1.134-2.959-1.827-4.486a13.203 13.203 0 0 1-.752-2.059c-.369-1.4-.996-2.707-1.358-4.048a38.316 38.316 0 0 0-1.763-5.104c-.045-.106-.064-.101-.055.014Z" fill="#fff"/><path d="M87.13 136.412a.462.462 0 0 0-.386-.258.465.465 0 0 0-.413.213c-.924 1.439-1.671 2.864-2.242 4.276-.31.769-.824 1.135-1.458 1.597a.518.518 0 0 1-.475.066.51.51 0 0 1-.318-.356c-.304-1.235 2.107-4.749 2.724-6.187a27.623 27.623 0 0 1 2.786-4.986c1.028-1.459 1.659-3.048 2.628-4.552.301-.464.716-.614 1.245-.448a.357.357 0 0 1 .227.214c.219.595.23 1.058.035 1.389a44.815 44.815 0 0 0-2.38 4.601.36.36 0 0 0 .01.317c.65 1.258 1.822.938 2.504-.097 1.175-1.779 1.94-3.093 2.294-3.941.492-1.177 1.103-2.068 1.834-2.673a.276.276 0 0 1 .142-.063.275.275 0 0 1 .155.022c1.965.862-1.049 4.865-1.838 5.824a.322.322 0 0 0-.01.403c.03.039.067.071.11.094.845.445 4.324-.98 5.214-1.407a.294.294 0 0 0 .165-.249c.22-4.347.414-7.158.58-8.434.286-2.183 1.738-4.925 4.455-5.252 3.75-.458 6.604.773 8.562 3.693.931 1.386 1.153 2.746.666 4.079-.223.61-.976 1.625-2.259 3.045-.941 1.038-3.634 3.504-3.652 4.88a.185.185 0 0 0 .293.152c.542-.4 2.425-2.28 2.852-.856a.551.551 0 0 0 .583.387.553.553 0 0 0 .235-.083c2.717-1.752 4.324-3.466 6.734-6.549a14.09 14.09 0 0 0 1.635-2.683c2.823-6.023 5.827-11.676 9.011-16.959.407-.679 4.817-6.773 5.638-3.562.17.666.211 1.15.124 1.452-1.556 5.434-4.412 10.432-8.566 14.993-3.572 3.921-6.49 7.47-8.207 11.88-.147.377-.191.76-.131 1.149a.325.325 0 0 0 .186.248c.872.4 3.324-2.821 3.88-3.5 1.51-1.849 9.321-.752 11.562-.366 1.552.266 3.214.866 4.866 1.259 1.686.403 3.421 1.024 4.286 2.269 1.59 2.29-1.796 5.066-3.71 5.935a.352.352 0 0 1-.147.03.349.349 0 0 1-.261-.13.36.36 0 0 1-.065-.135c-.186-.824.89-2.203 1.428-2.779a.562.562 0 0 0 .145-.293c.183-1.204-.68-1.587-1.745-1.697-2.166-.228-4.176-.341-6.311-.945-2.673-.756-4.833-1.274-6.479-1.552-4.142-.7-6.176 3.966-9.104 6.139-.6.448-1.293.172-1.369-.552-.204-2.024.603-3.373 1.417-4.983.191-.377.279-.72.266-1.028a.259.259 0 0 0-.049-.137.256.256 0 0 0-.393-.018c-1.531 1.686-3.1 3.328-5.093 4.459-.611.348-1.107.289-1.738.114a.557.557 0 0 0-.338.01 4.33 4.33 0 0 0-1.614 1.017.559.559 0 0 1-.321.155c-.995.131-1.597-.221-1.807-1.058-.493-1.993 2.076-4.538 3.442-5.997.779-.835 1.555-1.897 2.328-3.186 2.631-4.394-4.542-7.428-7.659-5.808-2.535 1.321-1.935 4.801-2.197 7.063-.145 1.265-.566 2.931-.393 4.169a.225.225 0 0 0 .21.197l1.024.058a.403.403 0 0 1 .38.407c-.018 1.383-1.566 5.352-3.104 5.659a.65.65 0 0 1-.772-.552 7.748 7.748 0 0 1-.038-1.748.791.791 0 0 0-.328-.683.788.788 0 0 0-.752-.09 29.9 29.9 0 0 1-5.03 1.552.483.483 0 0 0-.266.159c-.81.958-1.97 3.845-2.983 4.272a.99.99 0 0 1-.849-.038.528.528 0 0 1-.241-.237l-1.37-2.79Zm44.582-30.491c-2.788 4.225-5.4 8.56-7.835 13.004a.21.21 0 0 0-.024.126.203.203 0 0 0 .297.153c.324-.169.707-.772.876-.976 1.555-1.865 7.6-10.021 7.262-12.183a.313.313 0 0 0-.246-.257.309.309 0 0 0-.185.016.313.313 0 0 0-.145.117Zm-41.388 29.073c-1.214-.558-1.927.883-.73 1.601a.237.237 0 0 0 .257-.013.223.223 0 0 0 .06-.067l.582-.972a.394.394 0 0 0-.041-.453.397.397 0 0 0-.128-.096ZM31.25 150.23a26.654 26.654 0 0 1-5.636 6.372c-.793.652-2.88 1.476-3.145-.089-.551-3.256 2.2-8.821 5.266-10.228 1.414-.649 3.838.079 4.804-1.18.838-1.089.01-1.969-.849-2.824-3.827-3.79-3.238-14.873 2.728-16.535 2.545-.707 4.37 1.476 5.88 3.252.294.345.651.431 1.072.258.549-.224 1.197-1.172 1.707-1.258 1.29-.218.531 2.02.18 2.534-1.81 2.628-2.467 5.694-1.973 9.197a.418.418 0 0 0 .187.294.427.427 0 0 0 .344.055c1.097-.3 1.955-.904 2.58-1.956 1.765-2.996 4.096-6.838 7.127-8.669a.871.871 0 0 1 .983.052c.442.334.493 1.113.359 1.672-.812 3.375-2.624 6.051-5.438 8.028-1.221.855-1.959 1.735-2.383 3.214-.2.7-1.176 2.779.438 2.614 1.855-.19 3.686-2.473 5.234-3.552 1.894-1.321 1.845.459 2.021 1.676a.177.177 0 0 0 .025.065.177.177 0 0 0 .048.049.163.163 0 0 0 .13.024c.42-.09.758-.256 1.018-.5 3.026-2.796 6.003-5.882 8.931-9.259 1.09-1.259 2.71.459 1.228 1.972a46.495 46.495 0 0 0-5.766 7.163.298.298 0 0 0 .093.417c.86.524 2.066-.379 2.883-1.114 2.01-1.803 4.107-4.283 6.66-5.259a.358.358 0 0 1 .314.031c1.589.99-.539 3.094-1.073 4.201a.452.452 0 0 0-.011.38.458.458 0 0 0 .28.258c.413.137.696-.118 1.03-.314 1.877-1.1 3.67-2.58 4.346-4.728.807-2.566 2.203-4.966 4.048-6.735.859-.817 3.542-1.841 4.183-.203.62 1.576-2.265 5.352-3.224 6.165-.934.791-1.87 1.578-2.81 2.359-.96.793-1.277 2.559.117 3.083.941.355 2.63-.259 3.662-.572.54-.166.748.027.624.579-.117.51-.472.59-.79.838-1.355 1.059-4.2 2-5.528.29-.354-.46-.678-.925-.972-1.394a.24.24 0 0 0-.16-.108.222.222 0 0 0-.1.005.229.229 0 0 0-.088.045c-1.045.869-6.338 5.462-6.925 2.021a14.085 14.085 0 0 1-.141-1.025.402.402 0 0 0-.253-.339.406.406 0 0 0-.416.077c-2.031 1.849-3.418 3.032-6.076 3.773-1.58.438-1.7-.655-1.931-1.8a.388.388 0 0 0-.666-.186c-1.159 1.238-2.638 2.686-4.414 2.783a.345.345 0 0 1-.31-.163l-.731-1.155a.36.36 0 0 0-.28-.165c-1.014-.062-2.52 1.462-3.2 2.183-.959 1.01-3.169 1.482-3.803-.038-.4-.956-.066-2.69.006-3.839a.45.45 0 0 0-.59-.458c-2.896.959-2.368 2.562-3.265 4.824-.59 1.497-2.676 6.959-4.583 6.987a.488.488 0 0 1-.314-.114c-1.234-1.079-1.362-2.638-2.014-3.993a.385.385 0 0 0-.528-.176.388.388 0 0 0-.15.138Zm-.27-13.57c.145 1.5 1.683 5.297 3.659 5.145a.408.408 0 0 0 .283-.148c1.141-1.404 1.49-2.914 2.476-4.345.969-1.407 2.345-3.686 1.807-5.421-.6-1.931-2.914-4.604-5.221-3.286-2.78 1.593-3.297 5.048-3.004 8.055Zm44.19-.863c.132.117.445.02.872-.272.427-.291.931-.752 1.403-1.281.471-.529.871-1.083 1.111-1.541.24-.457.301-.78.17-.897-.132-.117-.446-.02-.873.271-.426.292-.93.752-1.402 1.282-.472.529-.871 1.083-1.112 1.54-.24.458-.3.78-.17.898Zm-24.523-3.751c-1.594.007-4.142 5.214-4.087 5.362a.352.352 0 0 0 .236.209.351.351 0 0 0 .305-.067c1.445-1.193 3.946-3.383 3.749-5.321a.209.209 0 0 0-.068-.131.202.202 0 0 0-.135-.052ZM38.56 138.44c-.593.151-1.649 2.738-1.849 3.382a.152.152 0 0 0 .121.197c2.162.376 2.217-2 2-3.4a.221.221 0 0 0-.182-.184.198.198 0 0 0-.09.005Zm-4.07 13.369a.256.256 0 0 0 .342-.096c.48-.794 3.97-7.639 1.559-7.504-2.166.124-2.549 2.079-3.221 3.7a.402.402 0 0 0 .003.317c.414.969.431 3.124 1.318 3.583Zm-4.782-3.797a.712.712 0 0 0-.604-.062c-2.71.956-3.707 3.666-4.903 6.073a.61.61 0 0 0 .51.879c1.624.097 4.531-4.696 5.19-6.01.196-.383.183-.652-.193-.88ZM.396 165.931a.555.555 0 0 1-.373-.445c-.306-2.245 2.473-6.911 3.69-8.835.814-1.29.524-2.428.18-3.835-.587-2.386 2.641-1.462 2.986-2.745 1.672-6.228 4.659-12.221 7.107-18.187.68-1.655 1.793-2.91 3.338-3.766a.515.515 0 0 1 .349-.051l1.272.262a.317.317 0 0 0 .29-.09c.582-.596 1.748-2.376 2.586-1.031.264.421.245 1.013-.059 1.776a524.838 524.838 0 0 1-8.466 20.056c-.514 1.15-.794 2.694-.837 4.635a.404.404 0 0 1-.131.289c-1.156 1.059-1.88 1.88-2.4 3.459a52.52 52.52 0 0 1-1.583 4.176c-.266.621-1.625 2.204-2.328 1.493-.848-.851.603-4.013.2-5.276a.375.375 0 0 0-.286-.253.38.38 0 0 0-.198.017.366.366 0 0 0-.161.116c-1.445 1.789-2.152 4.241-2.91 6.393-.314.897-1.087 2.231-2.266 1.842Zm17.577-35.443c-.99-.114-1.71 1.475-2.094 2.231a227.781 227.781 0 0 0-6.948 14.938c-.355.838-1.483 4.18.4 4.159 2.414-.024 7.6-15.045 8.486-17.518.418-1.159.556-2.21.542-3.379a.44.44 0 0 0-.386-.431ZM8.43 157.089c.411-.766.48-1.568.207-2.407a.247.247 0 0 0-.29-.166l-.772.18a.306.306 0 0 0-.238.275c-.031.425.044 2.597.979 2.221a.223.223 0 0 0 .114-.103ZM15.876 153.764c1.231.149 1.083 1.473.486 2.214-.65.809-1.452 1.278-2.403 1.407a.178.178 0 0 1-.13-.035.183.183 0 0 1-.07-.117c-.197-1.251.493-3.665 2.117-3.469Z" fill="#CBB59C"/></svg>