<svg width="215" height="98" fill="none" xmlns="http://www.w3.org/2000/svg"><path d="M130.812 52.594a.68.68 0 0 0-.578-.384.686.686 0 0 0-.618.317c-1.382 2.146-2.5 4.271-3.352 6.376-.464 1.147-1.233 1.692-2.181 2.381a.774.774 0 0 1-.711.098.76.76 0 0 1-.475-.53c-.454-1.84 3.15-7.08 4.073-9.225a41.09 41.09 0 0 1 4.167-7.435c1.537-2.175 2.48-4.546 3.93-6.788.45-.692 1.07-.915 1.861-.668a.529.529 0 0 1 .341.319c.326.888.343 1.578.051 2.072a66.652 66.652 0 0 0-3.558 6.86.532.532 0 0 0 .015.472c.97 1.877 2.723 1.4 3.744-.144 1.757-2.653 2.9-4.612 3.429-5.877.736-1.755 1.651-3.083 2.744-3.985a.414.414 0 0 1 .443-.062c2.94 1.286-1.567 7.256-2.748 8.685a.475.475 0 0 0-.103.404.493.493 0 0 0 .252.337c1.264.663 6.467-1.46 7.797-2.098a.436.436 0 0 0 .248-.37c.33-6.483.619-10.675.866-12.578.428-3.255 2.599-7.343 6.663-7.831 5.607-.683 9.875 1.153 12.804 5.507 1.393 2.067 1.724 4.095.995 6.083-.333.908-1.459 2.422-3.377 4.54-1.408 1.548-5.435 5.225-5.461 7.276a.27.27 0 0 0 .147.252.275.275 0 0 0 .291-.025c.81-.597 3.625-3.4 4.265-1.276a.82.82 0 0 0 1.222.453c4.063-2.612 6.467-5.168 10.071-9.765a20.948 20.948 0 0 0 2.444-4c4.222-8.982 8.714-17.411 13.475-25.29.609-1.012 7.204-10.098 8.432-5.31.254.993.316 1.715.185 2.164-2.327 8.104-6.597 15.556-12.809 22.358-5.343 5.846-9.705 11.137-12.273 17.714a3.243 3.243 0 0 0-.196 1.712.483.483 0 0 0 .278.37c1.305.597 4.971-4.206 5.801-5.219 2.259-2.756 13.939-1.12 17.291-.545 2.321.396 4.806 1.291 7.276 1.877 2.522.602 5.116 1.527 6.41 3.384 2.378 3.414-2.686 7.553-5.548 8.85a.515.515 0 0 1-.61-.15.505.505 0 0 1-.097-.2c-.278-1.23 1.331-3.286 2.135-4.145a.833.833 0 0 0 .217-.437c.273-1.795-1.016-2.365-2.61-2.53-3.238-.34-6.245-.509-9.437-1.409-3.998-1.128-7.228-1.899-9.689-2.314-6.194-1.044-9.236 5.914-13.614 9.153-.898.669-1.934.257-2.048-.823-.304-3.018.903-5.029 2.12-7.43.285-.562.418-1.073.397-1.532a.37.37 0 0 0-.25-.334.383.383 0 0 0-.41.102c-2.29 2.515-4.636 4.962-7.617 6.649-.912.52-1.655.432-2.599.17a.84.84 0 0 0-.505.015 6.491 6.491 0 0 0-2.413 1.517.843.843 0 0 1-.48.231c-1.489.196-2.389-.33-2.702-1.578-.738-2.972 3.104-6.767 5.146-8.942 1.166-1.245 2.326-2.828 3.481-4.752 3.935-6.55-6.791-11.076-11.453-8.659-3.79 1.97-2.893 7.158-3.285 10.531-.217 1.887-.846 4.371-.588 6.217a.336.336 0 0 0 .315.293l1.531.088a.606.606 0 0 1 .568.606c-.026 2.062-2.342 7.98-4.642 8.438a.976.976 0 0 1-1.155-.822c-.11-.82-.132-1.639-.067-2.458l.011-.15a1.177 1.177 0 0 0-1.615-1.152 44.894 44.894 0 0 1-7.523 2.315.725.725 0 0 0-.397.236c-1.212 1.43-2.945 5.734-4.461 6.371-.413.172-.835.153-1.269-.056a.793.793 0 0 1-.361-.355l-2.047-4.16Zm66.667-45.466a275.537 275.537 0 0 0-11.716 19.39.3.3 0 0 0 .048.36.303.303 0 0 0 .359.057c.485-.252 1.058-1.152 1.31-1.455 2.326-2.782 11.366-14.943 10.861-18.167a.478.478 0 0 0-.368-.383.475.475 0 0 0-.494.198ZM135.587 50.48c-1.815-.833-2.882 1.316-1.093 2.386a.349.349 0 0 0 .385-.019.333.333 0 0 0 .09-.1l.871-1.45a.577.577 0 0 0-.253-.817ZM47.654 73.772a39.64 39.64 0 0 1-8.34 9.489c-1.174.97-4.262 2.198-4.655-.134-.817-4.847 3.256-13.134 7.794-15.229 2.093-.965 5.681.118 7.11-1.756 1.24-1.623.016-2.932-1.255-4.205-5.666-5.643-4.793-22.146 4.038-24.62 3.767-1.053 6.467 2.197 8.703 4.841.435.514.964.642 1.587.385.812-.334 1.771-1.745 2.527-1.874 1.909-.323.786 3.009.265 3.774-2.678 3.913-3.651 8.477-2.92 13.694a.632.632 0 0 0 .523.533c.088.014.178.01.264-.014 1.623-.447 2.894-1.346 3.818-2.912 2.613-4.462 6.064-10.182 10.55-12.908.221-.136.478-.201.738-.188.26.014.51.106.717.265.654.498.73 1.659.531 2.49-1.201 5.025-3.884 9.01-8.05 11.954-1.807 1.273-2.899 2.582-3.527 4.785-.296 1.042-1.74 4.139.648 3.892 2.747-.282 5.457-3.681 7.749-5.289 2.802-1.966 2.73.683 2.991 2.496a.258.258 0 0 0 .107.17.244.244 0 0 0 .194.035c.62-.133 1.122-.381 1.506-.744 4.478-4.163 8.885-8.758 13.22-13.787 1.614-1.874 4.013.683 1.818 2.937a69.151 69.151 0 0 0-8.535 10.665.446.446 0 0 0 .138.621c1.271.78 3.058-.565 4.267-1.658 2.976-2.686 6.08-6.377 9.857-7.83a.529.529 0 0 1 .464.046c2.354 1.473-.796 4.605-1.587 6.254a.687.687 0 0 0 .398.95c.613.205 1.031-.175 1.526-.468 2.777-1.638 5.431-3.84 6.432-7.04 1.194-3.82 3.262-7.393 5.993-10.027 1.271-1.217 5.242-2.742 6.191-.303.919 2.346-3.353 7.969-4.772 9.18a586.775 586.775 0 0 1-4.161 3.513c-1.419 1.18-1.888 3.81.174 4.59 1.393.529 3.895-.385 5.421-.852.8-.247 1.108.04.924.862-.174.76-.7.878-1.169 1.248-2.006 1.576-6.217 2.978-8.183.431a26.531 26.531 0 0 1-1.439-2.074.35.35 0 0 0-.385-.155.352.352 0 0 0-.131.068c-1.546 1.294-9.381 8.133-10.25 3.009a21.029 21.029 0 0 1-.209-1.526.597.597 0 0 0-.374-.505.589.589 0 0 0-.616.115c-3.006 2.752-5.058 4.514-8.994 5.618-2.338.652-2.516-.976-2.858-2.68a.583.583 0 0 0-.41-.44.574.574 0 0 0-.575.162c-1.715 1.843-3.905 4-6.534 4.144a.507.507 0 0 1-.46-.242l-1.082-1.72a.53.53 0 0 0-.413-.246c-1.5-.093-3.731 2.177-4.737 3.25-1.419 1.505-4.69 2.208-5.63-.056-.592-1.423-.097-4.005.01-5.715a.676.676 0 0 0-.551-.706.665.665 0 0 0-.322.023c-4.288 1.427-3.506 3.815-4.834 7.183-.873 2.228-3.96 10.362-6.783 10.403a.717.717 0 0 1-.465-.17c-1.827-1.607-2.016-3.928-2.98-5.945a.58.58 0 0 0-.487-.325.574.574 0 0 0-.52.268Zm-.398-20.205c.215 2.234 2.491 7.887 5.416 7.661a.601.601 0 0 0 .419-.22c1.69-2.09 2.205-4.34 3.665-6.47 1.434-2.095 3.47-5.49 2.674-8.072-.888-2.875-4.313-6.855-7.728-4.893-4.114 2.372-4.88 7.517-4.446 11.994Zm65.411-1.285c.195.175.659.03 1.291-.404.631-.434 1.378-1.12 2.076-1.908.698-.788 1.29-1.613 1.645-2.294.356-.68.446-1.162.251-1.336-.195-.175-.659-.03-1.291.404-.631.433-1.378 1.12-2.076 1.907-.698.788-1.29 1.614-1.646 2.294-.355.681-.445 1.162-.25 1.337Zm-36.3-5.585c-2.358.01-6.13 7.764-6.049 7.984a.523.523 0 0 0 .35.31.506.506 0 0 0 .451-.099c2.14-1.777 5.84-5.037 5.55-7.923a.312.312 0 0 0-.1-.194.298.298 0 0 0-.202-.078Zm-17.891 9.52c-.878.226-2.44 4.077-2.736 5.037a.223.223 0 0 0 .022.185.23.23 0 0 0 .157.108c3.2.56 3.282-2.979 2.96-5.063a.335.335 0 0 0-.144-.225.321.321 0 0 0-.26-.042Zm-6.023 19.907a.38.38 0 0 0 .505-.144c.71-1.181 5.875-11.373 2.307-11.173-3.205.185-3.772 3.096-4.767 5.51a.604.604 0 0 0 .005.472c.612 1.443.638 4.652 1.95 5.335Zm-7.08-5.653a1.045 1.045 0 0 0-.893-.093c-4.012 1.422-5.488 5.458-7.259 9.042a.914.914 0 0 0 .336 1.176.9.9 0 0 0 .42.133c2.404.144 6.707-6.993 7.682-8.95.29-.57.27-.97-.286-1.308ZM.599 97.158a.835.835 0 0 1-.563-.667c-.465-3.364 3.738-10.356 5.579-13.24 1.23-1.933.792-3.638.27-5.746C5 73.929 9.88 75.314 10.402 73.39c2.53-9.333 7.045-18.314 10.747-27.255 1.029-2.48 2.711-4.361 5.047-5.643a.783.783 0 0 1 .527-.077l1.924.392a.478.478 0 0 0 .438-.134c.881-.894 2.644-3.56 3.91-1.545.4.63.37 1.518-.088 2.661a783.039 783.039 0 0 1-12.8 30.056c-.78 1.722-1.202 4.038-1.268 6.945a.6.6 0 0 1-.198.434c-1.747 1.587-2.842 2.817-3.63 5.184a78.206 78.206 0 0 1-2.393 6.258c-.401.93-2.456 3.302-3.52 2.238-1.282-1.277.913-6.016.303-7.907a.558.558 0 0 0-.433-.38.568.568 0 0 0-.542.199c-2.185 2.682-3.253 6.356-4.4 9.581-.475 1.344-1.643 3.344-3.426 2.76Zm26.576-53.115c-1.496-.17-2.586 2.212-3.165 3.344a340.175 340.175 0 0 0-10.506 22.387c-.537 1.255-2.242 6.263.605 6.232 3.65-.036 11.492-22.547 12.832-26.252.63-1.737.84-3.313.819-5.065a.653.653 0 0 0-.17-.432.665.665 0 0 0-.415-.214ZM12.748 83.907c.622-1.147.726-2.35.313-3.607a.368.368 0 0 0-.438-.248l-1.168.27a.458.458 0 0 0-.36.412c-.047.636.068 3.892 1.48 3.329a.337.337 0 0 0 .173-.156ZM24.044 78.085c2.043.262 1.797 2.593.807 3.9-1.08 1.424-2.41 2.25-3.989 2.477a.283.283 0 0 1-.215-.062.33.33 0 0 1-.117-.205c-.326-2.205.819-6.456 3.514-6.11Z" fill="#CAB59B"/></svg>