<svg width="35" height="35" viewBox="0 0 35 35" fill="none" xmlns="http://www.w3.org/2000/svg">
<rect width="35" height="35" fill="#DA2429"/>
<path fill-rule="evenodd" clip-rule="evenodd" d="M23.8417 22.7358L24.456 20.0154C24.8175 20.0154 26.7669 20.0154 26.7669 20.0154C28.508 20.1017 27.6068 22.7358 26.2458 22.7358C26.2458 22.7358 24.3876 22.7358 23.8417 22.7358ZM22.9742 14.3143H19.6817L23.8625 9.71028L22.9742 14.3143ZM21.0722 22.7456C20.6839 22.7456 18.5685 22.7456 18.5685 22.7456C17.3154 22.5696 17.4968 19.8506 19.6221 20.0039C19.6221 20.0039 21.099 20.0039 21.6152 20.0039L21.0722 22.7456ZM27.2478 18.0436C27.2478 18.0436 25.3923 18.0436 24.8485 18.0436C25.004 17.3695 27.4693 6 27.4693 6H24.0467L8.6066 22.9685L9.74515 18.0484H7.35357L5 27.2691H7.66369L12.0065 22.4856L10.9665 27.2691H13.3815C13.3815 27.2691 15.5849 18.8474 15.6133 18.7167C15.6956 18.6398 17.6988 16.5118 17.8359 16.3552H22.3985L22.1606 18.0467C21.7978 18.0467 19.3336 18.0467 19.3336 18.0467C17.9329 18.0695 16.2226 19.0146 15.505 20.4066C15.3623 20.7951 15.2418 21.2616 15.2227 21.7547C15.2019 22.3512 15.309 23 15.6507 23.5187C15.9441 24.0116 17.0826 24.6733 18.3484 24.6733C18.3484 24.6733 19.9245 24.6733 20.6232 24.6733C20.5002 25.2186 19.7797 28 19.7797 28H22.5175C22.5175 28 23.2724 25.0447 23.3897 24.6569C23.7506 24.6569 25.9501 24.6569 25.9501 24.6569C30.0115 24.8007 32.3334 18.6652 27.2478 18.0436Z" fill="white"/>
</svg>
