<?xml version="1.0" standalone="no"?>
<!DOCTYPE svg PUBLIC "-//W3C//DTD SVG 20010904//EN"
 "http://www.w3.org/TR/2001/REC-SVG-20010904/DTD/svg10.dtd">
<svg version="1.0" xmlns="http://www.w3.org/2000/svg"
 width="260.000000pt" height="260.000000pt" viewBox="0 0 260.000000 260.000000"
 preserveAspectRatio="xMidYMid meet">
<metadata>
Created by potrace 1.11, written by Peter Selinger 2001-2013
</metadata>
<g transform="translate(0.000000,260.000000) scale(0.100000,-0.100000)"
fill="#000000" stroke="none">
<path d="M1851 2243 c-19 -21 -54 -61 -80 -89 -25 -28 -84 -93 -131 -144 -47
-52 -110 -121 -141 -154 -31 -34 -67 -73 -80 -88 -22 -24 -110 -120 -254 -278
-33 -36 -102 -111 -153 -167 -51 -55 -102 -111 -113 -124 -29 -33 -177 -196
-217 -237 -18 -19 -66 -72 -108 -119 -51 -57 -73 -77 -70 -61 2 13 16 75 31
138 14 63 28 124 31 135 2 11 10 46 18 77 7 32 11 60 8 63 -3 3 -51 5 -107 5
l-101 0 -98 -382 c-54 -211 -99 -390 -101 -398 -2 -8 -6 -23 -10 -32 -7 -17 3
-18 112 -18 136 0 116 -10 230 116 39 43 82 91 95 105 12 14 59 64 102 112 44
48 81 85 83 83 3 -2 0 -21 -6 -43 -6 -21 -24 -103 -41 -183 -17 -80 -33 -155
-36 -168 -4 -22 -3 -22 104 -22 l108 0 27 103 c86 326 119 454 123 467 49 197
50 201 112 264 33 34 77 80 98 104 l38 42 209 0 c194 0 208 -1 203 -17 -3 -10
-8 -44 -12 -75 l-6 -58 -149 0 c-163 0 -228 -14 -311 -66 -50 -32 -113 -95
-132 -132 -60 -119 -36 -279 51 -336 70 -47 119 -58 263 -61 74 -2 136 -3 137
-4 0 -1 -16 -66 -36 -146 -24 -91 -34 -145 -27 -146 53 -5 219 -3 228 2 6 4
26 67 45 140 19 73 38 138 43 145 6 7 53 10 132 10 68 -1 145 2 172 7 195 34
340 241 291 413 -18 63 -60 107 -135 143 -49 23 -69 26 -193 29 -136 4 -139 4
-133 25 9 37 152 693 170 778 3 13 7 33 10 44 21 90 32 141 43 203 l6 32 -155
0 -154 0 -33 -37z m16 -320 c-3 -5 -8 -26 -11 -48 -4 -22 -13 -74 -22 -115 -9
-41 -18 -86 -20 -100 -2 -14 -9 -48 -14 -75 l-11 -51 -144 1 c-80 0 -144 3
-143 6 2 4 41 48 88 99 47 51 92 100 100 110 82 94 165 180 172 180 5 0 7 -3
5 -7z m-205 -923 c-6 -44 -42 -214 -46 -218 -2 -2 -57 -3 -122 -3 -112 0 -118
1 -143 25 -38 39 -36 112 5 163 38 47 80 59 211 58 l98 -1 -3 -24z m523 6 c57
-37 31 -157 -45 -209 -20 -14 -48 -17 -147 -17 -111 0 -123 2 -120 18 2 9 14
63 27 119 26 117 13 109 163 106 68 -1 106 -6 122 -17z"/>
</g>
</svg>
