<svg width="132" height="28" fill="none" xmlns="http://www.w3.org/2000/svg"><path fill-rule="evenodd" clip-rule="evenodd" d="m53.198 14.739-6.191 4.095 1.078-4.085h-3.113l-3.084 11.428h3.43l.922-3.763 1.689-.948 2.891 4.711h3.892L50.67 19.54l3.944-2.415h4.738l-2.262 9.053h3.254l2.375-9.053h4.712l.631-2.386H53.198Zm17.815 9.167h-1.096l.769-3.195h1.108c2.9-.039 1.747 3.212-.781 3.195Zm.298-5.638c.172-.701.698-3.578.698-3.578h-3.3l-2.915 11.487h4.716c6.874-.124 9.54-8.368.801-7.909ZM44.025 13.62l2.71-9.258h3.944l2.104 4.839-4.104 4.392 3.713-.005 8.992-9.629-2.325 9.662h3.012l1.86-6.316.948 6.316h3.374l4.327-6.56-1.694 6.56h3.24l3.158-11.693H72.61L67.7 9.293l-1.052-7.365h-7.135l-4.197 4.45-2.2-4.45h-9.258L40.873 13.62h3.15ZM98.61 6.276h-5.46l1.144-4.348h-3.421L87.88 13.586h3.43l1.17-4.788h5.451l-1.01 4.788h3.187l2.964-11.658h-3.192l-1.27 4.348ZM79 14.691l-3.03 11.487h3.618l2.979-11.487H79Zm8.153-5.947.541-2.346-6.736-.003.607-2.284h7.897l.511-2.183H78.55L75.454 13.62H86.88l.706-2.733-7.815-.015.567-2.13h6.816Zm-55.18 4.877 1.09-3.432h4.006c4.067-.246 6.736-4.37 4.338-7.23-.803-.589-1.715-1.047-3.019-1.031h-6.542L28.784 13.62h3.19Zm6.465 8.42-1.779-.039 2.42-2.283-.64 2.323Zm1.544-7.29L28.696 26.176h3.548s1.602-1.536 1.823-1.726h3.703l-.481 1.726h3.536l3.06-11.438-3.903.011Zm-14.15 5.847.841-3.348h3.168c2.387.106 1.152 3.348-.713 3.348H25.83Zm-1.19-10.365h-4.514l5.732-5.666-1.218 5.666ZM22.034 20.61h-3.432c-1.718-.217-1.469-3.563 1.445-3.374h2.733l-.746 3.374Zm8.466-5.787h-3.288C27.424 13.992 30.804 0 30.804 0h-4.692L4.945 20.885l1.56-6.055H3.228L0 26.178h3.651l5.954-5.887-1.426 5.887h3.31s3.02-10.365 3.06-10.526a318.98 318.98 0 0 0 3.047-2.906h6.256l-.326 2.081H19.65c-1.92.028-4.265 1.19-5.249 2.904a5 5 0 0 0-.387 1.66c-.029.734.118 1.533.587 2.172.402.606 1.963 1.421 3.698 1.421h3.12c-.17.67-1.157 4.094-1.157 4.094h3.753s1.035-3.638 1.196-4.115h3.51c5.568.176 8.751-7.375 1.78-8.14Zm3.08-7.038.842-3.349h3.164c2.389.107 1.152 3.349-.71 3.349h-3.297Zm86.428 3.088h-1.096l.773-3.192h1.104c3.59.085 1.441 3.289-.781 3.192Zm.407-5.712c.167-.7.789-3.223.789-3.223l-3.298-.01-2.97 11.658h4.559c6.952-.118 9.671-8.808.92-8.425Zm-3.313-3.185h-13.018l-.633 2.386h4.695l-2.469 9.224h3.581l2.506-9.224h4.706l.632-2.386Zm11.033-.048-3.072 11.658h3.618l2.927-11.658h-3.473Z" fill="currentColor"/><path d="M89.001 18.231h2.84l1.495 7.85h-2.541l-.246-1.671h-3.26L86.2 26.08h-2.35l5.15-7.85Zm1.038 1.617h-.027l-1.842 3.071h2.18l-.311-3.071ZM98.644 18.231l-1.853 7.85h-2.316l1.855-7.85h2.314ZM100.731 18.231h5.817l-.348 1.481h-3.501l-.41 1.739h3.363l-.351 1.48h-3.361l-.745 3.15H98.88l1.851-7.85ZM105.549 24.263h2.102l-.424 1.818h-2.103l.425-1.818ZM111.333 18.231h3.149c1.565 0 2.215.291 2.5.483.657.437.751 1.065.751 1.538 0 .591-.189 1.064-.764 1.459-.621.41-1.442.523-1.766.547v.02c.337.055.584.25.734.517.051.1.165.326.3.874l.62 2.412h-2.314l-.447-1.997c-.083-.382-.136-.752-.361-.93-.211-.17-.572-.17-.985-.17h-.224l-.732 3.096h-2.319l1.858-7.849Zm1.541 3.278h.747c.798 0 1.146-.136 1.308-.216a.835.835 0 0 0 .49-.772.702.702 0 0 0-.263-.572c-.265-.202-.713-.212-.813-.212h-1.054l-.415 1.772ZM126.415 23.009c-.212.875-.485 1.76-1.394 2.433-.91.671-2.056.775-2.862.775-.723 0-1.819-.087-2.593-.705-.333-.272-.763-.774-.763-1.764 0-.538.153-1.176.23-1.479l.969-4.038h2.313l-1.054 4.452c-.036.137-.137.516-.137.898 0 .37.137.648.322.807.203.17.535.28.923.28.596 0 .947-.258 1.132-.439.323-.312.46-.683.65-1.456l1.083-4.54h2.316l-1.135 4.776Z" fill="currentColor"/></svg>