<svg width="37" height="35" fill="none" xmlns="http://www.w3.org/2000/svg"><path d="M.088 30.834c.608.087 1.317-.188 2.126-.824.84-.607 1.924-1.576 3.255-2.907L26.557 6.015c1.33-1.33 2.3-2.415 2.907-3.254.636-.81.911-1.519.824-2.126l.087-.087 3.732 3.731-.087.087c-.608-.087-1.33.174-2.17.781-.81.637-1.88 1.62-3.21 2.95L7.551 29.187c-1.331 1.33-2.315 2.4-2.951 3.21-.608.84-.868 1.563-.781 2.17l-.087.087L.002 30.92l.086-.087Z" fill="#862021"/><path d="M32.025 34.018c.087-.607-.188-1.316-.824-2.126-.608-.839-1.577-1.924-2.908-3.254L7.206 7.55C5.875 6.22 4.79 5.25 3.95 4.643c-.81-.637-1.518-.912-2.126-.825l-.087-.087L5.47 0l.087.087c-.087.607.173 1.33.78 2.17.637.81 1.62 1.88 2.951 3.21l21.088 21.088c1.33 1.33 2.401 2.314 3.211 2.95.839.608 1.562.868 2.17.782l.086.086-3.731 3.732-.087-.087Z" fill="#862021"/></svg>