<svg width="39" height="6" fill="none" xmlns="http://www.w3.org/2000/svg"><path d="M.447 2.908c0-.766.246-1.416.74-1.95C1.692.41 2.41.136 3.341.136c.931 0 1.643.274 2.136.822.506.534.76 1.19.76 1.97 0 .768-.254 1.425-.76 1.972-.493.534-1.205.801-2.136.801-.93 0-1.65-.267-2.156-.8-.493-.548-.74-1.212-.74-1.993ZM16.603 2.908c0-.766.247-1.416.74-1.95.506-.548 1.225-.822 2.156-.822.93 0 1.642.274 2.135.822.507.534.76 1.19.76 1.97 0 .768-.253 1.425-.76 1.972-.493.534-1.204.801-2.135.801-.931 0-1.65-.267-2.156-.8-.493-.548-.74-1.212-.74-1.993ZM32.76 2.908c0-.766.246-1.416.739-1.95.506-.548 1.225-.822 2.156-.822s1.643.274 2.136.822c.506.534.76 1.19.76 1.97 0 .768-.254 1.425-.76 1.972-.493.534-1.205.801-2.136.801-.93 0-1.65-.267-2.156-.8-.493-.548-.74-1.212-.74-1.993Z" fill="currentColor"/></svg>