<svg width="3" height="15" viewBox="0 0 3 15" fill="none" xmlns="http://www.w3.org/2000/svg">
<path d="M0.640625 14.0736C0.760022 13.9841 0.834644 13.8149 0.864494 13.5662C0.904292 13.3174 0.924192 12.9642 0.924192 12.5065V5.25318C0.924192 4.79549 0.904292 4.44228 0.864494 4.19353C0.834644 3.94479 0.760022 3.77565 0.640625 3.6861V3.65625H1.92414V3.6861C1.80474 3.77565 1.72514 3.94479 1.68535 4.19353C1.6555 4.44228 1.64057 4.79549 1.64057 5.25318V12.5065C1.64057 12.9642 1.6555 13.3174 1.68535 13.5662C1.72514 13.8149 1.80474 13.9841 1.92414 14.0736V14.1035H0.640625V14.0736Z" fill="currentColor"/>
<path fill-rule="evenodd" clip-rule="evenodd" d="M0.53125 3.53906H2.03863V3.73681L1.99386 3.77039C1.90951 3.83365 1.83703 3.96664 1.79878 4.20382C1.7699 4.44582 1.75507 4.79308 1.75507 5.24793V12.5013C1.75507 12.9561 1.7699 13.3034 1.79878 13.5454C1.83703 13.7826 1.90951 13.9155 1.99386 13.9788L2.03863 14.0124V14.2101H0.53125V14.0124L0.576024 13.9788C0.658759 13.9168 0.727363 13.7855 0.755916 13.5476L0.756439 13.5432C0.794836 13.3032 0.814817 12.957 0.814817 12.5013V5.24793C0.814817 4.79221 0.794921 4.44595 0.756524 4.20597L0.75583 4.20163C0.727277 3.96369 0.658759 3.83245 0.576024 3.77039L0.53125 3.73681V3.53906ZM1.70998 3.76293H0.857722C0.920545 3.87384 0.958605 4.01336 0.977926 4.17276C1.01889 4.43011 1.03869 4.78955 1.03869 5.24793V12.5013C1.03869 12.9596 1.01889 13.3191 0.977926 13.5764C0.958605 13.7358 0.920545 13.8754 0.857722 13.9863H1.70998C1.64528 13.8762 1.60282 13.7376 1.57738 13.5786L1.57668 13.5743C1.54604 13.3189 1.5312 12.9604 1.5312 12.5013V5.24793C1.5312 4.78878 1.54612 4.43033 1.57677 4.17495L1.57729 4.17058C1.60274 4.01154 1.64528 3.87298 1.70998 3.76293Z" fill="currentColor"/>
<circle cx="1.28726" cy="0.94351" r="0.865385" fill="currentColor"/>
</svg>
