<svg width="155" height="19" fill="none" xmlns="http://www.w3.org/2000/svg"><path d="M16.892.297H0v16.892L16.892.297ZM1.512 18.732h16.892V1.84L1.512 18.732ZM28.183.297h-5.956v18.406H25.9v-6.858h2.371c4.297 0 6.787-2.078 6.787-5.67v-.09c0-3.68-2.52-5.788-6.876-5.788Zm3.26 5.878c0 1.9-1.126 2.91-3.23 2.91H25.93v-5.85h2.282c2.223 0 3.23.892 3.23 2.821v.119ZM44.041 7.54H41.02V3.296h8.001V.297H37.344v18.406h6.608c4.209 0 6.639-2.048 6.639-5.61v-.09c0-3.503-2.312-5.462-6.55-5.462Zm-3.022 2.762h2.726c2.223 0 3.29.89 3.29 2.701v.09c0 1.81-1.067 2.73-3.171 2.73h-2.845v-5.521ZM59.715 9.114 67.33.297h-4.06l-6.668 7.926V.297h-3.705v18.436h3.705v-8.164l6.697 8.164h4.386l-7.971-9.619ZM67.86 9.648v-.207C67.86 3.978 71.533 0 76.512 0c3.852 0 7.083 2.048 7.468 6.056h-2.223c-.474-2.82-2.074-4.275-5.245-4.275-3.823 0-6.372 2.969-6.372 7.63v.208c0 4.69 2.371 7.54 6.342 7.54 3.023 0 5.097-1.514 5.572-4.512h2.074C83.477 16.922 80.543 19 76.424 19c-5.275-.03-8.565-3.681-8.565-9.352ZM92.552 2.108h-5.365V.297h12.981v1.84h-5.364v16.625h-2.252V2.108ZM103.219 18.762V.297h2.252v15.378L115.429.297h2.252v18.465h-2.252V3.384l-9.958 15.378h-2.252ZM121.621 18.969c-.682 0-1.008-.208-1.008-.208v-2.167s.297.089 1.008.089c1.482 0 2.015-1.514 2.282-4.602.385-5.106.444-11.815.444-11.815h11.084V18.73h-2.252V2.166h-6.787c-.059 2.375-.178 6.56-.415 10.093-.207 3.533-1.126 6.71-4.356 6.71ZM140.055.297h2.252v7.51h2.993c3.497 0 6.461 1.426 6.461 5.345v.089c0 3.859-2.905 5.492-6.461 5.492h-5.245V.297Zm5.393 16.655c2.49 0 4.06-1.099 4.06-3.682v-.089c0-2.375-1.422-3.562-4.06-3.562h-3.141v7.362h3.141v-.03Z" fill="#000"/></svg>