<svg width="106" height="30" fill="none" xmlns="http://www.w3.org/2000/svg"><path fill="#F1F1F1" d="M.75.875h105v28.25H.75z"/><path d="M13.685 16.256c.063-.637.094-1.44.105-2.14h1.409V18.5h1.493v-5.46h-4.207s-.031 2.203-.104 2.913c-.073.898-.25 1.41-.648 1.41a.499.499 0 0 1-.23-.043v1.2s.158.084.523.084c1.096 0 1.503-.835 1.66-2.348Zm6.824 2.359c1.639 0 2.88-1.096 2.88-2.818v-.084c0-1.701-1.23-2.797-2.87-2.797-1.638 0-2.88 1.117-2.88 2.828v.084c0 1.701 1.242 2.787 2.87 2.787Zm.01-1.148c-.855 0-1.336-.627-1.336-1.67v-.084c0-1.044.501-1.65 1.336-1.65.846 0 1.337.627 1.337 1.67v.074c0 1.033-.491 1.66-1.337 1.66Zm7.568-3.351v-1.075H24.34V18.5h1.492v-4.384h2.255Zm3.209 4.499c1.638 0 2.88-1.096 2.88-2.818v-.084c0-1.701-1.231-2.797-2.87-2.797s-2.88 1.117-2.88 2.828v.084c0 1.701 1.241 2.787 2.87 2.787Zm.01-1.148c-.856 0-1.336-.627-1.336-1.67v-.084c0-1.044.501-1.65 1.336-1.65.846 0 1.336.627 1.336 1.67v.074c0 1.033-.49 1.66-1.336 1.66Zm7.905-4.426h-4.739v1.075h1.618V18.5h1.503v-4.384h1.618v-1.075Zm2.287 5.459 2.108-3.643V18.5h1.493v-5.46h-1.493l-2.108 3.644V13.04h-1.493V18.5h1.492Zm8.277 0h1.492v-5.46h-4.906v5.46h1.493v-4.384h1.92V18.5Zm8.338 0h1.711l-2.15-2.964 1.994-2.495H58.06l-1.764 2.338v-2.338h-1.503V18.5h1.503v-2.578l1.817 2.578Zm4.159-2.244c.062-.637.093-1.44.104-2.14h1.409V18.5h1.493v-5.46H61.07s-.031 2.203-.104 2.913c-.073.898-.25 1.41-.647 1.41-.157 0-.23-.043-.23-.043v1.2s.156.084.522.084c1.096 0 1.503-.835 1.66-2.348Zm5.79 2.244 2.108-3.643V18.5h1.493v-5.46H70.17l-2.108 3.644V13.04h-1.493V18.5h1.493Zm7.369.115c1.492 0 2.432-.658 2.61-1.837h-1.43c-.095.459-.44.762-1.139.762-.824 0-1.315-.522-1.356-1.43h3.935v-.418c0-1.952-1.253-2.776-2.662-2.776-1.587 0-2.808 1.117-2.808 2.839v.083c0 1.743 1.2 2.777 2.85 2.777Zm-1.294-3.434c.114-.773.573-1.222 1.252-1.222.72 0 1.138.397 1.19 1.222h-2.442Zm8.367 3.319h1.493v-5.46h-1.493v2.14H80.48v-2.14h-1.492v5.46h1.492v-2.244h2.025V18.5Zm7.026-5.46h-4.739v1.076h1.618V18.5h1.503v-4.384h1.618v-1.075Zm2.653 4.52c-.553 0-.793-.26-.793-.657 0-.585.511-.772 1.388-.772h.584v.459c0 .605-.51.97-1.179.97Zm-.449 1.055c.856 0 1.336-.334 1.65-.773v.658h1.471v-3.56c0-1.482-.95-2.024-2.286-2.024s-2.359.574-2.453 1.868h1.43c.063-.47.334-.772.93-.772.688 0 .886.354.886 1.002v.219h-.615c-1.67 0-2.84.48-2.84 1.753 0 1.149.836 1.629 1.827 1.629Z" fill="#407287"/></svg>