<svg width="13" height="20" viewBox="0 0 13 20" fill="none" xmlns="http://www.w3.org/2000/svg">
<path fill-rule="evenodd" clip-rule="evenodd" d="M6.2066 0.0224444C3.93394 0.322204 2.15711 1.98646 1.80689 4.14339C1.73773 4.56933 1.78066 5.52742 1.887 5.93073C2.07518 6.64449 2.3423 7.18116 2.79015 7.74507C4.29125 9.63528 6.96075 10.2109 9.17875 9.12274C10.5482 8.45087 11.5 7.27955 11.8334 5.85591C11.9329 5.43135 11.9549 4.56739 11.8781 4.10673C11.5397 2.07755 9.93137 0.480482 7.81609 0.0732086C7.46197 0.00501179 6.55544 -0.0235688 6.2066 0.0224444ZM7.6307 2.58508C8.39112 2.82757 8.98064 3.38878 9.21955 4.09768C9.32282 4.40414 9.35961 4.98626 9.29576 5.30356C9.26981 5.43248 9.16839 5.69595 9.07036 5.88913C8.47367 7.06493 6.97245 7.53621 5.72413 6.93958C5.14918 6.66481 4.71047 6.19543 4.50054 5.63059C4.36305 5.26058 4.32882 4.64516 4.42567 4.28402C4.68018 3.33491 5.43666 2.663 6.44796 2.48785C6.75965 2.43387 7.29423 2.47783 7.6307 2.58508ZM1.67195 9.67733C1.30114 9.80945 0.98905 10.1421 0.859039 10.5439C0.762977 10.8407 0.777708 11.0143 0.923158 11.2989C1.1458 11.7346 2.08802 12.4166 2.99507 12.7986C3.69897 13.0951 4.78506 13.3661 5.54158 13.434C5.69865 13.4481 5.82712 13.4674 5.82712 13.4769C5.82712 13.4863 4.96312 14.3257 3.90708 15.3421C2.40677 16.7863 1.9612 17.2368 1.86888 17.403C1.45904 18.141 2.12981 19.1138 3.05045 19.1166C3.52898 19.118 3.54032 19.1097 5.23154 17.5038C6.06284 16.7145 6.77178 16.0666 6.80695 16.0642C6.84209 16.0617 6.89742 16.063 6.92992 16.0669C6.96241 16.0708 7.67135 16.7202 8.50533 17.5099C10.0997 19.0196 10.1533 19.0616 10.5594 19.118C11.0392 19.1848 11.6343 18.8403 11.8807 18.3532C11.9643 18.1879 11.986 18.0906 11.9857 17.8829C11.9849 17.4161 12.0169 17.4536 9.85752 15.3922C8.78887 14.3721 7.91455 13.5177 7.91455 13.4937C7.91455 13.4696 7.95666 13.45 8.00809 13.45C8.15347 13.45 9.04121 13.3031 9.39151 13.2211C10.4041 12.9841 11.2037 12.6341 11.9516 12.1004C12.383 11.7925 12.683 11.5042 12.8032 11.2821C13.0604 10.8067 12.7645 10.0567 12.2058 9.76785C11.9441 9.63258 11.5998 9.60097 11.2973 9.68451C11.1788 9.71724 10.8788 9.86523 10.6306 10.0134C9.77071 10.5267 8.97544 10.8312 8.104 10.981C6.39022 11.2756 4.68837 10.9599 3.1686 10.0657C2.93032 9.92546 2.65561 9.77788 2.55813 9.7377C2.3473 9.6508 1.84285 9.61642 1.67195 9.67733Z" fill="currentColor"/>
</svg>
