<svg width="65" height="123" viewBox="0 0 65 123" fill="none" xmlns="http://www.w3.org/2000/svg">
<path d="M31.0909 53.1658C33.4254 52.7607 36.0987 52.0427 38.157 51.6192C41.0414 51.0276 43.9553 50.4323 46.8986 49.8334C46.9174 49.8295 46.937 49.8304 46.9554 49.8361C46.9738 49.8418 46.9903 49.8521 47.0033 49.8659C47.0164 49.8796 47.0255 49.8965 47.0297 49.9147C47.0339 49.9329 47.0331 49.9518 47.0274 49.9696C45.53 55.3358 43.9172 60.6676 42.189 65.9651C41.8982 66.8598 41.6404 67.4969 40.7604 67.9903C37.655 69.7258 34.5411 71.4343 31.4186 73.1159C31.3923 73.1293 31.3715 73.1516 31.36 73.1789C31.3485 73.2061 31.347 73.2366 31.3558 73.2648C31.3647 73.2931 31.3832 73.3173 31.4082 73.3332C31.4332 73.349 31.463 73.3556 31.4923 73.3515L38.945 72.6409C38.9622 72.639 38.9795 72.642 38.9951 72.6494C39.0106 72.6569 39.0237 72.6686 39.0329 72.6832C39.0422 72.6978 39.0471 72.7147 39.0472 72.7319C39.0473 72.7492 39.0425 72.7661 39.0334 72.7808C33.2524 82.7411 23.9585 87.3991 12.7426 88.4485C11.5274 88.5627 10.3123 89.2918 9.81152 90.5327C8.16558 94.6088 6.78844 99.5503 5.64328 103.557C3.76536 110.144 2.50605 116.157 0.653904 122.424C0.631591 122.497 0.584396 122.559 0.520575 122.601C0.456754 122.642 0.380376 122.66 0.304844 122.651C0.229313 122.642 0.159441 122.606 0.107464 122.55C0.0554865 122.495 0.0247218 122.423 0.0205666 122.347C-0.134086 118.679 0.617081 114.957 1.14732 111.308C1.61496 108.119 2.43977 104.536 3.22039 101.27C4.97803 93.9399 6.9971 86.6835 9.27761 79.5008C10.0558 77.0534 10.9002 74.7508 11.811 72.593C23.4209 45.0613 42.6309 20.3574 64.4221 0.167962C64.7167 -0.106976 64.8971 -0.0443782 64.9634 0.355753C65.2359 2.02379 63.9287 5.54396 62.9566 6.95424C59.326 12.2198 56.4109 17.8572 54.2114 23.8666C53.6002 25.5383 53.2688 28.5098 51.1294 28.9369C49.2564 29.3101 47.457 29.9004 45.7313 30.7081C45.5325 30.8014 45.5423 30.8517 45.7608 30.859L51.5308 31.08C51.5522 31.0807 51.5731 31.0864 51.592 31.0966C51.6109 31.1067 51.6272 31.121 51.6396 31.1385C51.6521 31.1559 51.6603 31.176 51.6638 31.1971C51.6673 31.2182 51.6659 31.2399 51.6596 31.2604C51.1552 32.9984 50.8569 34.8469 50.3598 36.5002C49.6946 38.7144 49.1386 40.9544 48.6918 43.2202C48.0548 46.4458 44.7003 47.0349 42.1117 48.1359C38.4958 49.675 34.7915 51.2461 30.9989 52.8491C30.9607 52.8644 30.9296 52.8934 30.9116 52.9303C30.8936 52.9673 30.89 53.0096 30.9015 53.0491C30.913 53.0886 30.9387 53.1224 30.9737 53.144C31.0087 53.1655 31.0505 53.1733 31.0909 53.1658Z" fill="white"/>
<path d="M19.3593 36.9531C19.3638 37.0205 19.3914 37.0843 19.4373 37.1338C19.4833 37.1833 19.5449 37.2155 19.6118 37.225C19.6787 37.2345 19.7468 37.2207 19.8048 37.186C19.8627 37.1512 19.9069 37.0976 19.93 37.0341C21.2654 33.2758 22.5873 29.6415 23.8957 26.1311C24.8678 23.5278 26.6169 22.0512 28.7194 20.1954C31.7093 17.5516 34.5189 15.2318 37.1479 13.2361C44.2153 7.86497 51.9332 3.69673 60.3016 0.731337C60.4169 0.689606 60.4268 0.706789 60.331 0.782888C54.7488 5.23589 49.8552 9.83126 45.6501 14.569C41.8906 18.8109 37.9764 24.1317 34.0107 28.797C32.2101 30.918 30.2622 33.1236 28.6605 35.2335C17.1279 50.4189 9.33757 67.4748 5.28961 86.4012C5.28166 86.4416 5.26216 86.4786 5.23341 86.5079C5.20467 86.5372 5.1679 86.5575 5.12751 86.5664C5.08713 86.5754 5.04483 86.5725 5.00567 86.5582C4.9665 86.544 4.93214 86.5189 4.90667 86.4859C3.84988 85.1235 3.19077 83.7169 2.69735 81.9642C0.728608 74.9729 0.704055 67.9485 2.62371 60.891C2.65562 60.7707 2.69245 60.7695 2.73418 60.8873C3.54917 63.2218 4.14936 65.6079 4.53476 68.0455C4.54949 68.1339 4.76306 68.4248 4.83671 68.469C4.87003 68.4904 4.90845 68.5027 4.94806 68.5045C4.98766 68.5064 5.02705 68.4977 5.0622 68.4793C5.09736 68.461 5.12704 68.4337 5.14822 68.4002C5.16941 68.3667 5.18135 68.3282 5.18283 68.2885C5.43077 63.5483 5.61242 58.813 5.72779 54.0826C5.81248 50.6435 6.76617 48.8723 8.63305 45.5473C11.4315 40.569 14.6191 35.8509 18.1957 31.393C18.3847 31.1548 18.5504 30.9842 18.6928 30.8811C18.7243 30.8578 18.7615 30.8435 18.8004 30.8396C18.8394 30.8357 18.8787 30.8424 18.9141 30.859C18.9496 30.8756 18.9799 30.9015 19.0019 30.9339C19.0239 30.9663 19.0367 31.0041 19.0389 31.0431L19.3593 36.9531Z" fill="white"/>
</svg>
