<svg width="142" height="37" fill="none" xmlns="http://www.w3.org/2000/svg"><path d="M7.992 17.79h1.493a3.12 3.12 0 0 0 1.65-.466 2.66 2.66 0 0 0 1.06-1.229l3.432-8.297V3.236c.002-.376-.08-.75-.238-1.098a2.865 2.865 0 0 0-.687-.932A3.226 3.226 0 0 0 13.67.58c-.386-.145-.8-.22-1.219-.222H.123V.45a3.23 3.23 0 0 1 1.719 1.022c.431.502.665 1.12.665 1.755V34.02a2.69 2.69 0 0 1-.665 1.754 3.228 3.228 0 0 1-1.719 1.02v.106h12.329c.845 0 1.655-.302 2.253-.84.598-.537.933-1.267.933-2.027v-4.562l-3.446-8.317a2.64 2.64 0 0 0-1.056-1.233 3.098 3.098 0 0 0-1.651-.463H7.992a.986.986 0 0 1-.654-.247.798.798 0 0 1-.272-.59c0-.22.097-.432.27-.589a.98.98 0 0 1 .656-.244Z" fill="currentColor"/><path d="M12.452 37H.123a.13.13 0 0 1-.087-.032.106.106 0 0 1-.036-.079v-.094c0-.024.009-.049.026-.068a.124.124 0 0 1 .067-.04 3.1 3.1 0 0 0 1.65-.981 2.58 2.58 0 0 0 .638-1.684V3.227c0-.61-.224-1.203-.638-1.686A3.102 3.102 0 0 0 .093.56.125.125 0 0 1 .026.52.104.104 0 0 1 0 .45V.36A.11.11 0 0 1 .036.28.133.133 0 0 1 .123.247h12.329c.878 0 1.72.315 2.341.873.621.56.97 1.317.971 2.108v4.561a.1.1 0 0 1 0 .04l-3.44 8.297c-.216.521-.604.97-1.111 1.288a3.269 3.269 0 0 1-1.728.487H7.992a.85.85 0 0 0-.568.212.688.688 0 0 0-.235.51c0 .096.02.19.06.277a.794.794 0 0 0 .434.392.86.86 0 0 0 .309.054h1.493a3.25 3.25 0 0 1 1.72.49 2.77 2.77 0 0 1 1.102 1.286l3.45 8.317a.094.094 0 0 1 0 .04v4.548c-.004.788-.353 1.543-.972 2.1a3.506 3.506 0 0 1-2.333.874ZM.584 36.776h11.868a3.246 3.246 0 0 0 2.162-.808c.574-.517.897-1.217.898-1.947v-4.517l-3.438-8.312a2.538 2.538 0 0 0-1.011-1.177 2.977 2.977 0 0 0-1.578-.445H7.992a1.12 1.12 0 0 1-.743-.279.907.907 0 0 1-.31-.668c0-.125.027-.249.08-.364a.948.948 0 0 1 .227-.31c.097-.088.214-.159.342-.207.128-.048.265-.073.404-.073h1.493a2.993 2.993 0 0 0 1.577-.447 2.55 2.55 0 0 0 1.015-1.173l3.435-8.28V3.227c-.001-.73-.324-1.43-.897-1.947a3.25 3.25 0 0 0-2.163-.81H.584a3.266 3.266 0 0 1 1.49 1.098c.366.49.561 1.068.562 1.659v30.795a2.77 2.77 0 0 1-.561 1.657c-.366.49-.885.872-1.491 1.097Z" fill="currentColor"/><path d="M21.077.359c-.695 0-1.372.19-1.942.547a3.128 3.128 0 0 0-1.247 1.448l-2.25 5.424-3.432 8.308c-.205.5-.576.932-1.063 1.237a3.118 3.118 0 0 1-1.658.466h14.082c.627 0 1.238-.172 1.753-.494a2.83 2.83 0 0 0 1.127-1.306l5.778-13.934a2.54 2.54 0 0 1 .672-.95A2.9 2.9 0 0 1 33.96.507V.359H21.077Z" fill="currentColor"/><path d="M23.567 17.9H9.485a.13.13 0 0 1-.087-.032.106.106 0 0 1-.036-.079.103.103 0 0 1 .007-.045.112.112 0 0 1 .026-.039.128.128 0 0 1 .04-.027.142.142 0 0 1 .05-.01 2.993 2.993 0 0 0 1.577-.446c.463-.29.817-.699 1.015-1.174l5.687-13.741A3.255 3.255 0 0 1 19.058.808a3.815 3.815 0 0 1 2.01-.57h12.877c.034 0 .066.012.09.033a.11.11 0 0 1 .036.08V.5a.104.104 0 0 1-.022.065.122.122 0 0 1-.06.041c-.382.12-.73.315-1.017.571a2.437 2.437 0 0 0-.646.909L26.551 16.02a2.956 2.956 0 0 1-1.168 1.357 3.464 3.464 0 0 1-1.816.522Zm-12.877-.224h12.877a3.193 3.193 0 0 0 1.68-.476c.493-.308.87-.744 1.082-1.25l5.778-13.934c.138-.343.352-.657.63-.923.277-.266.612-.478.984-.623H21.077c-.667 0-1.318.184-1.867.525a3.03 3.03 0 0 0-1.204 1.386l-5.683 13.734c-.142.345-.36.66-.641.927s-.62.48-.994.626l.002.008Zm21.535 17.519L26.526 21.45a3.148 3.148 0 0 0-1.25-1.443 3.688 3.688 0 0 0-1.939-.55H9.485c.589 0 1.163.162 1.646.466.483.303.85.733 1.053 1.23l3.446 8.318 2.329 5.617c.22.528.613.983 1.127 1.305a3.323 3.323 0 0 0 1.752.495h13.113v-.15a2.943 2.943 0 0 1-1.053-.6 2.58 2.58 0 0 1-.673-.944Z" fill="currentColor"/><path d="M33.959 37H20.847a3.462 3.462 0 0 1-1.822-.516 2.954 2.954 0 0 1-1.173-1.355l-5.778-13.937a2.537 2.537 0 0 0-1.011-1.177 2.976 2.976 0 0 0-1.578-.445.13.13 0 0 1-.077-.038.107.107 0 0 1-.03-.075c0-.027.01-.053.03-.074a.131.131 0 0 1 .077-.038h13.844c.719.002 1.42.2 2.01.57.591.369 1.043.89 1.297 1.497l5.685 13.744c.14.342.364.652.653.908.29.255.638.45 1.02.571a.122.122 0 0 1 .06.041.103.103 0 0 1 .023.065v.16a.107.107 0 0 1-.039.07.13.13 0 0 1-.08.029ZM10.688 19.57c.372.146.708.358.986.625.279.267.494.582.633.925l5.778 13.934c.211.506.589.943 1.082 1.25.493.31 1.079.475 1.68.477h12.876a3.041 3.041 0 0 1-.988-.621 2.689 2.689 0 0 1-.64-.92l-5.684-13.75a3.025 3.025 0 0 0-1.204-1.392 3.547 3.547 0 0 0-1.87-.528h-12.65ZM46.989 6.491v5.383h-1.37V7.507h-2.71v4.367h-1.37V6.49h5.45Zm6.904 1.953c0 1.2-1 1.945-2.597 1.945H50.09v1.48h-1.383V6.49h2.589c1.597 0 2.597.747 2.597 1.953Zm-1.403 0c0-.592-.424-.937-1.27-.937h-1.13v1.869h1.13c.846 0 1.279-.338 1.279-.932h-.009Zm7.236 2.431v.999h-4.63V6.49h4.526v1.001h-3.151V8.66h2.778v.969h-2.778v1.233l3.255.012Zm6.052-.508c0 1.016-1.23 1.6-2.666 1.6a5.243 5.243 0 0 1-2.383-.562l.425-.892a3.85 3.85 0 0 0 1.794.439c.786 0 1.428-.262 1.428-.762 0-.407-.409-.607-1.034-.607h-1.46v-.94h1.356c.565 0 .89-.221.89-.574 0-.439-.53-.67-1.205-.67a3.644 3.644 0 0 0-1.605.384l-.42-.964a4.92 4.92 0 0 1 2.05-.439c1.386 0 2.58.57 2.58 1.546.001.247-.08.488-.235.693a1.355 1.355 0 0 1-.627.454c.316.077.596.246.797.48.2.233.311.519.315.814Zm1.364-3.876h1.37v3.506l2.855-3.506h1.299v5.383h-1.37v-3.5l-2.847 3.5h-1.306V6.49ZM80.6 10.86v2.123h-1.282v-1.11h-4.222v1.11h-1.28v-2.13h.239c.778-.025.975-1.179 1.032-2.685l.07-1.684h4.596v4.369l.847.007Zm-4.88 0h2.674V7.507h-2.06l-.027.784c-.039 1.147-.175 2.13-.587 2.57Zm10.727.015v.999h-4.633V6.49h4.52v1.001h-3.15V8.66h2.778v.969h-2.778v1.233l3.263.012Zm6.909-4.384v5.383h-1.383V9.667h-2.718v2.207H87.87V6.49h1.384v2.123h2.718V6.491h1.383Zm6.337 1.016h-1.918v4.367h-1.37V7.507h-1.904V6.49h5.187l.005 1.016Zm.669 1.677c0-1.622 1.383-2.784 3.246-2.784a3.4 3.4 0 0 1 1.354.223c.427.164.807.414 1.112.729l-.888.74c-.182-.2-.412-.36-.672-.47a2.1 2.1 0 0 0-.832-.162 2.03 2.03 0 0 0-1.356.506c-.36.324-.562.763-.562 1.22 0 .458.202.897.562 1.22.36.325.847.506 1.356.506.288.002.573-.054.833-.165.261-.11.49-.272.671-.473l.888.74c-.303.318-.682.57-1.11.736a3.373 3.373 0 0 1-1.356.225c-1.863-.007-3.246-1.169-3.246-2.791Zm9.194.522h-.959v2.168h-1.37V6.49h1.37v2.177h.992l1.573-2.177h1.46l-1.956 2.599 2.016 2.784h-1.572l-1.554-2.168Zm4.255-3.215h1.37v3.506l2.855-3.506h1.312v5.383h-1.37v-3.5l-2.86 3.5h-1.307V6.49Zm7.247 0h1.369v3.507l2.855-3.507h1.299v5.383h-1.37V8.375l-2.849 3.5h-1.307l.003-5.384Zm1.095-1.521h.948c0 .367.239.56.71.56s.699-.193.71-.56h.947c0 .74-.548 1.176-1.657 1.176-1.11 0-1.641-.424-1.649-1.176h-.009Zm-76.66 15.79v.585H44.22v-.594c-2.025-.106-3.137-.945-3.137-2.353 0-1.408 1.112-2.246 3.137-2.352v-.555h1.274v.548c2.016.106 3.126.951 3.126 2.36 0 1.407-1.101 2.268-3.126 2.361Zm-1.274-.986v-2.752c-1.214.1-1.794.538-1.794 1.376 0 .839.64 1.278 1.794 1.384v-.008Zm3.069-1.39c0-.831-.609-1.278-1.795-1.369v2.76c1.206-.092 1.8-.546 1.8-1.384l-.005-.007Zm2.358.024c0-1.598 1.37-2.784 3.272-2.784 1.901 0 3.274 1.177 3.274 2.784 0 1.608-1.395 2.784-3.274 2.784-1.88 0-3.272-1.178-3.272-2.784Zm5.143 0a1.575 1.575 0 0 0-.338-.924 1.853 1.853 0 0 0-.849-.601 2.067 2.067 0 0 0-1.077-.08c-.36.07-.689.234-.946.471-.257.237-.43.537-.5.863-.068.325-.028.662.115.967.143.305.383.566.69.75.306.183.666.28 1.034.28a1.99 1.99 0 0 0 .735-.119c.234-.085.445-.212.62-.375.177-.162.313-.355.402-.567.089-.212.127-.438.114-.665ZM63 15.723v5.383h-1.386V18.9h-2.718v2.207h-1.383v-5.385h1.383v2.12h2.718v-2.12H63Zm7.932 4.367v2.13h-1.28v-1.114H65.43v1.114h-1.282v-2.13h.239c.777-.022.975-1.176 1.035-2.683l.068-1.684h4.598v4.367h.844Zm-4.88 0h2.677v-3.354h-2.052l-.025.784c-.052 1.147-.18 2.121-.6 2.57Zm11.403-1.154h-.956v2.17h-1.37v-5.383h1.37v2.175h.989l1.572-2.175h1.463l-1.958 2.599 2.016 2.784h-1.57l-1.556-2.17Zm9.97-3.213-2.549 4.26c-.495.83-1.205 1.246-2.007 1.246a2.784 2.784 0 0 1-.973-.185l.331-.947c.194.06.396.094.6.101.173 0 .342-.044.49-.125a.892.892 0 0 0 .346-.336l.052-.061-2.359-3.946h1.48l1.588 2.89 1.644-2.89 1.357-.007Zm6.057 0v5.383h-1.37v-4.37h-2.049l-.044 1.125c-.076 2.113-.408 3.328-1.81 3.328a3.289 3.289 0 0 1-.683-.083l.085-1.053c.08.02.163.03.247.03.701 0 .879-.8.94-2.178l.084-2.182h4.6Zm6.882 3.507c0 1.232-.923 1.876-2.466 1.876h-2.7v-5.383h1.37v1.768h1.522c1.455 0 2.274.577 2.274 1.738Zm-1.391.021c0-.591-.428-.838-1.145-.838h-1.25v1.77h1.25c.698 0 1.145-.323 1.145-.932Zm6.698-2.515h-1.917v4.37h-1.371v-4.37h-1.917v-1.013h5.186l.019 1.013Zm6.885-1.013-2.545 4.26c-.496.83-1.206 1.246-2.008 1.246a2.806 2.806 0 0 1-.975-.185l.334-.947c.192.06.394.094.597.101.173 0 .343-.044.491-.125a.897.897 0 0 0 .347-.336l.052-.061-2.359-3.946h1.477l1.592 2.89 1.644-2.89 1.353-.007Zm6.291 1.945c0 1.199-.998 1.946-2.598 1.946h-1.202v1.48h-1.387v-5.371h2.589c1.6 0 2.598.745 2.598 1.945Zm-1.4 0c0-.591-.428-.94-1.274-.94h-1.126v1.87h1.126c.846.007 1.274-.338 1.274-.93Zm8.09-1.945v5.383h-1.37V18.9h-2.718v2.207h-1.386v-5.385h1.386v2.12h2.718v-2.12h1.37Zm6.882 3.507c0 1.232-.923 1.876-2.466 1.876h-2.698v-5.383h1.37v1.768h1.52c1.455 0 2.274.577 2.274 1.738Zm-1.392.021c0-.591-.427-.838-1.145-.838h-1.247v1.77h1.247c.699 0 1.145-.323 1.145-.932Zm2.154-3.528h1.37v5.383h-1.37v-5.383Zm4.249 0 1.241 1.63 1.239-1.63h1.621l-1.988 2.577 2.153 2.806h-1.644l-1.392-1.786-1.369 1.786h-1.598l2.137-2.755-2-2.628h1.6Zm-95.89 9.229h1.37v3.506l2.854-3.506h1.299v5.383h-1.37v-3.499l-2.855 3.499H41.54v-5.383Zm12.729 0v5.383h-1.384v-2.22h-2.718v2.22h-1.383v-5.383h1.383v2.123h2.718v-2.123h1.384Zm1.723 0h1.37v3.506l2.854-3.506h1.299v5.383h-1.37v-3.499l-2.854 3.499h-1.307l.008-5.383Zm13.518 4.369v2.155h-1.272v-1.139h-5v-5.385h1.37v4.37h2.685v-4.37h1.37v4.37h.847Zm1.21-4.369h1.37v3.506l2.852-3.506h1.299v5.383h-1.37v-3.499l-2.852 3.499h-1.307l.009-5.383Zm11.368 4.231h-2.776l-.529 1.152h-1.419l2.666-5.383h1.37l2.674 5.383h-1.452l-.534-1.152Zm-.439-.947-.931-2.06-.948 2.06h1.88Zm7.431-2.268h-1.918v4.367h-1.37v-4.367h-1.918v-1.016h5.186l.02 1.016Zm1.14-1.016h1.37v3.506l2.851-3.506h1.299v5.383h-1.37v-3.499l-2.852 3.499h-1.31l.011-5.383Zm12.52 3.868c0 .938-.822 1.515-2.323 1.515h-2.949v-5.383h2.784c1.387 0 2.206.493 2.206 1.393.005.25-.073.497-.224.708-.15.21-.367.377-.623.476.327.061.62.224.826.46a1.2 1.2 0 0 1 .303.832Zm-3.896-1.636h1.29c.597 0 .913-.225.913-.654 0-.429-.316-.656-.913-.656h-1.29v1.31Zm2.493 1.536c0-.454-.331-.668-.973-.668h-1.52v1.36h1.52c.642 0 .973-.221.973-.692Z" fill="currentColor"/></svg>