<svg width="115" height="74" fill="none" xmlns="http://www.w3.org/2000/svg"><path d="M35.698 22.917c.91-3.273 1.235-6.744 3.636-9.314a58.707 58.707 0 0 1 5.116-4.854c.175-.15.244-.11.207.119l-.355 2.114c-.11.662.017.711.38.148l2.651-4.148a3.267 3.267 0 0 1 1.032-1.019C52.89 3.13 58.411.547 63.767.053c.141-.012.15.016.026.084-5.184 2.875-8.858 5.784-13.644 9.754-7.018 5.817-12.235 12.168-15.994 20.56-.06.133-.124.137-.194.013-1.548-2.63-.055-7.91 1.221-10.456a.224.224 0 0 1 .114-.118.107.107 0 0 1 .103.014.105.105 0 0 1 .041.096 8.449 8.449 0 0 0 .153 2.917c.033.138.069.138.105 0Z" fill="currentColor"/><path d="M33.656 36.108c-.47.833-4.659 9.082-4.672 9.082a.143.143 0 0 1-.165-.17c.33-1.57.806-3.087 1.43-4.553 4.168-9.758 8.963-18.079 17.038-25.892A106.84 106.84 0 0 1 66.05.103c.324-.197.438-.111.342.258-.372 1.442-1.865 2.955-3.437 4.414-.832.77-2 2.399-3.505 4.887-.744 1.23-1.679 1.379-2.985 1.079a.182.182 0 0 0-.203.088l-.068.119a.194.194 0 0 0 .114.279l1.594.486a.245.245 0 0 1 .15.132.238.238 0 0 1-.002.198l-2.296 4.74a1.337 1.337 0 0 1-.95.73c-.724.14-6.423 1.091-6.664 1.425-.11.153-.07.226.118.22l5.996-.148c.34-.008.43.137.266.436l-3.404 6.143a.98.98 0 0 1-.583.47l-4.156 1.255a.182.182 0 0 0-.118.233c.059.173 2.33.245 2.553.262.423.03.48.193.174.486-3.355 3.207-7.36 4.481-12.016 3.822-.478-.068-.998.152-1.226.554a.202.202 0 0 0 .177.304h.702a.352.352 0 0 1 .326.233l.067.19a.215.215 0 0 1-.186.287l-.998.09a.3.3 0 0 0-.27.3v9.859a.309.309 0 0 0 .254.304l1.002.19a.275.275 0 0 1 .224.271v.114a.211.211 0 0 1-.212.212H32.57a.185.185 0 0 1-.177-.245l.042-.115a.359.359 0 0 1 .288-.245l.904-.127a.29.29 0 0 0 .179-.098.298.298 0 0 0 .071-.193l-.013-7.843c0-.276-.069-.293-.207-.05ZM77.432 38.184c1.078-4.634-4.697-6.727-6.418-2.41-.055.144-.25.334-.35.406-.249.175-.36.111-.335-.19.047-.541.288-3.395.698-3.493a.27.27 0 0 1 .308.157l.229.52a.244.244 0 0 0 .338.118c3.035-1.585 6.566-.008 7.356 3.353 2.347 9.995-10.624 11.052-9.035 4.68.082-.33.182-.335.3-.017 2.225 5.953 7.51 3.032 7.171-2.038a.215.215 0 0 0-.33-.169c-2.634 1.687-3.505-1.59-5.699.36a.224.224 0 0 1-.162.056.216.216 0 0 1-.15-.077c-.064-.076-.077-.216-.018-.296 1.226-1.72 2.726-1.972 4.499-.757a.59.59 0 0 0 .38.101l.952-.076a.295.295 0 0 0 .266-.228ZM83.47 43.942c3.209 2.55 4.578-2.693 2.989-4.308-.77-.786-2.165-.177-2.622-.896a.21.21 0 0 1 .14-.322l1.754-.304a.657.657 0 0 0 .377-.211c.831-.947 1.068-2.065.71-3.353-.22-.8-.744-1.178-1.573-1.133-1.78.101-2.017 1.29-2.824 2.52a.224.224 0 0 1-.317.059c-.199-.144.292-2.765.342-3.192.04-.322.153-.351.339-.089.63.884 1.361.194 2.042.068 3.877-.727 5.145 3.822 2.067 5.716-.116.07-.11.13.017.182 4.925 1.944-.042 9.576-4.799 5.564a.517.517 0 0 1-.186-.347c-.067-.748-.25-2.3-.008-2.427a.206.206 0 0 1 .292.11c.507 1.31.927 2.098 1.26 2.363ZM1.452 45.308c.013.393.376 2.82-.118 2.786a.3.3 0 0 1-.267-.207L.015 44.746a.275.275 0 0 1 .215-.36l.677-.122a.258.258 0 0 0 .207-.182L4.28 34.007a.305.305 0 0 0-.064-.298.314.314 0 0 0-.292-.1c-.346.064-1.864.41-1.665-.367a.358.358 0 0 1 .32-.271l2.686-.237c.589-.05.964.209 1.124.778.959 3.45 1.883 6.899 2.774 10.346.113.434.401.575.867.423.453-.147.594.001.422.444l-1.315 3.424c-.203.53-.325.512-.367-.055a9.766 9.766 0 0 1 .164-2.701.28.28 0 0 0-.27-.339l-6.972.005a.24.24 0 0 0-.241.249Zm.588-1.383a.211.211 0 0 0 .198.271l5.002.114a.21.21 0 0 0 .213-.165.211.211 0 0 0-.002-.097L5.16 34.781a.211.211 0 0 0-.41-.009l-2.71 9.154ZM16.714 45.32c-1.432-.004-2.803-.674-3.811-1.86-1.009-1.187-1.572-2.793-1.566-4.466.006-1.673.58-3.276 1.597-4.455 1.017-1.18 2.392-1.84 3.824-1.834 1.432.005 2.803.674 3.811 1.86 1.009 1.187 1.572 2.794 1.566 4.467-.006 1.673-.58 3.275-1.597 4.454-1.017 1.18-2.392 1.84-3.824 1.835Zm.394-11.778c-4.693-.782-4.913 7.99-2.444 10.21 1.298 1.167 3.459 1.01 4.533-.44 1.754-2.363 1.83-9.12-2.089-9.77ZM62.842 45.308c-.711 0-1.415-.163-2.072-.48a5.437 5.437 0 0 1-1.755-1.365 6.45 6.45 0 0 1-1.173-2.044 7.206 7.206 0 0 1-.412-2.41c0-.828.14-1.647.412-2.411a6.45 6.45 0 0 1 1.173-2.044 5.437 5.437 0 0 1 1.755-1.366 4.758 4.758 0 0 1 2.072-.48c1.435 0 2.811.665 3.826 1.846 1.015 1.181 1.585 2.784 1.585 4.454 0 1.671-.57 3.273-1.585 4.455-1.015 1.181-2.391 1.845-3.827 1.845Zm-.03-.647c.482.003.96-.141 1.407-.424.446-.282.853-.697 1.197-1.22a6.467 6.467 0 0 0 .805-1.833 8.4 8.4 0 0 0 .29-2.165c.008-1.501-.371-2.943-1.054-4.008-.682-1.066-1.613-1.667-2.586-1.672a2.596 2.596 0 0 0-1.407.423c-.446.283-.853.697-1.197 1.221a6.467 6.467 0 0 0-.805 1.833 8.4 8.4 0 0 0-.29 2.165c-.008 1.501.37 2.943 1.054 4.008.682 1.066 1.613 1.667 2.586 1.672ZM26.583 44.268l.807.021a.326.326 0 0 1 .305.25l.042.194a.242.242 0 0 1-.237.292h-3.264a.315.315 0 0 1-.196-.07.307.307 0 0 1-.108-.175c-.11-.533.846-.461 1.167-.605a.287.287 0 0 0 .169-.262l.148-9.78a.294.294 0 0 0-.063-.181.286.286 0 0 0-.161-.102l-1.027-.224a.258.258 0 0 1-.208-.258v-.127a.275.275 0 0 1 .275-.27l1.958.008c.597.003 1.037.268 1.319.795l2.528 4.689a.532.532 0 0 1 .025.452l-.537 1.37c-.07.178-.152.182-.245.013l-2.82-5.184c-.183-.338-.272-.314-.266.072l.101 8.79a.296.296 0 0 0 .288.292Z" fill="currentColor"/><path d="m54.301 44.285 1.235.148a.123.123 0 0 1 .11.123v.346a.123.123 0 0 1-.123.123h-4.308a.125.125 0 0 1-.092-.04.123.123 0 0 1-.026-.045c-.005-.016-.007-.033-.005-.05l.03-.347a.122.122 0 0 1 .105-.11l1.248-.178a.123.123 0 0 0 .105-.122V33.838a.123.123 0 0 0-.122-.123h-5.146a.123.123 0 0 0-.122.123v10.29a.123.123 0 0 0 .101.123l1.154.195a.122.122 0 0 1 .102.11l.025.338a.121.121 0 0 1-.07.12.123.123 0 0 1-.048.01H44.37a.122.122 0 0 1-.08-.029l-.3-.25a.122.122 0 0 1-.007-.184.122.122 0 0 1 .061-.03l1.433-.326a.123.123 0 0 0 .098-.119l.025-10.13a.123.123 0 0 0-.102-.123l-1.407-.24a.122.122 0 0 1-.1-.11.123.123 0 0 1 .007-.051l.122-.372a.123.123 0 0 1 .119-.085h11.343a.121.121 0 0 1 .095.043.123.123 0 0 1 .028.1l-.064.369a.122.122 0 0 1-.097.101l-1.272.254a.122.122 0 0 0-.098.123l.017 10.197a.123.123 0 0 0 .11.123ZM93.811 41.486l6.587-8.485c.183-.24.275-.209.275.093v10.654a.39.39 0 0 0 .266.368l1.1.355c.057.02.108.056.143.105a.278.278 0 0 1 .055.166c0 .473-3.83.279-4.346.274a.274.274 0 0 1-.174-.061.28.28 0 0 1-.097-.159c-.105-.44.723-.57.93-.55a.588.588 0 0 0 .61-.353.6.6 0 0 0 .05-.247l-.11-6.857c-.008-.488-.162-.539-.46-.152l-6.448 8.37c-.195.252-.292.22-.292-.096V33.905a.098.098 0 0 0-.031-.072.098.098 0 0 0-.075-.025c-.521.031-.975-.097-1.361-.385-.39-.287-.343-.43.14-.427l4.151.026a.241.241 0 0 1 .241.24v.136a.266.266 0 0 1-.22.262l-1.01.173a.334.334 0 0 0-.28.334l.107 7.234c.002.268.085.296.249.085ZM106.279 41.604l6.651-8.616c.211-.274.317-.237.317.11l.004 10.815c0 .072.026.141.073.196a.314.314 0 0 0 .185.104l.909.148a.244.244 0 0 1 .19.321l-.067.195a.324.324 0 0 1-.322.211c-.533-.034-4.08.085-4.101-.368a.311.311 0 0 1 .262-.326l.875-.151a.614.614 0 0 0 .512-.61l-.025-7.246c-.003-.341-.107-.376-.313-.106l-6.697 8.714c-.195.251-.293.217-.296-.101l-.089-10.524a.66.66 0 0 0-.588-.646l-.503-.051a.376.376 0 0 1-.325-.288c-.165-.676 3.733-.406 4.236-.397a.356.356 0 0 1 .33.24l.051.157a.22.22 0 0 1 .008.085.193.193 0 0 1-.169.169l-1.053.135a.383.383 0 0 0-.334.38l.047 7.374c.002.248.08.274.232.076ZM111.069 46.53a.17.17 0 0 1 .135-.044.164.164 0 0 1 .119.077c1.708 2.787-3.56 7.856-5.577 9.29-.27.191-.245.33.077.414.566.15.951.496 1.154 1.04.248.66.145 1.258-.309 1.797-.634.76-4.481 5.001-5.209 3.636a.469.469 0 0 1-.021-.389 4.96 4.96 0 0 0 .288-2.541.544.544 0 0 1 .076-.38c1.251-2.009 3.027-3.556 4.202-5.468 1.455-2.371 3.053-5.53 5.065-7.432Zm-.321 1.158c-.609.842-3.822 5.408-3.598 5.877a.128.128 0 0 0 .203.038c1.184-1.141 4.11-4.059 3.771-5.83-.062-.319-.187-.347-.376-.085Zm-5.183 9.34c-1.615.592-2.846 3.188-3.488 4.693a.22.22 0 0 0-.008.154c.015.05.048.095.092.125.634.427 3.611-2.765 4.046-3.294.302-.36.368-.788.199-1.28a.662.662 0 0 0-.588-.438.648.648 0 0 0-.253.04ZM51.312 56.267c.096-.164.05-.247-.14-.25-2.891-.048-5.77-.183-8.633-.406-.614-.047-1.208-.491-1.78-1.331-2.693-3.953 3.666-6.004 6.21-6.812 5.484-1.75 11.712-1.348 13.141 5.488.973 4.655-5.09 8.486-8.735 10.071a.284.284 0 0 1-.33-.08c-.405-.507.157-2.575.009-3.459-.13-.78-.475-.893-1.036-.338a27.469 27.469 0 0 1-4.486 3.577.58.58 0 0 1-.427.08c-1.234-.253.317-2.401.795-2.799a7.998 7.998 0 0 1 4.008-1.784.493.493 0 0 0 .355-.236l1.049-1.721Zm2.473-3.197c-.24.691-.531 1.362-.875 2.013a.481.481 0 0 0-.025.406l.228.605c.068.183.006.257-.186.224l-.499-.093a.351.351 0 0 0-.35.152l-1.04 1.564a.393.393 0 0 0 0 .44l.52.77c.081.12.118.264.105.41l-.186 2.11a.317.317 0 0 0 .448.316c4.194-1.869 10.57-6.046 6.524-11.555-3.852-5.247-12.557-1.877-17.035.71-.778.451-.965 1.079-.562 1.882.57 1.15 1.404 1.602 2.731 1.738 2.763.273 5.543.401 8.342.384a.36.36 0 0 0 .321-.198c.358-.708.775-1.384 1.252-2.03.428-.578.524-.527.287.153Zm-4.872 6.115c-.031-.043-.108-.052-.226-.027a2.229 2.229 0 0 0-.463.174c-.188.09-.401.208-.629.348a11.162 11.162 0 0 0-1.361.989c-.204.173-.383.34-.526.49a2.23 2.23 0 0 0-.308.387c-.06.105-.075.181-.044.224.031.043.108.052.227.027.118-.025.275-.084.463-.173.187-.09.4-.208.629-.348a11.117 11.117 0 0 0 1.36-.99c.205-.173.383-.34.526-.49.143-.15.248-.282.308-.386.06-.105.076-.181.044-.224ZM.581 61.087c3.61-5.12 5.78-10.845 11.035-14.282a.491.491 0 0 1 .389-.064c1.09.288-.436 3.349-.846 4.156a193.051 193.051 0 0 0-5.56 11.86.182.182 0 0 1-.295.05l-.093-.097a.23.23 0 0 1-.051-.232l1.788-4.841a.226.226 0 0 0 0-.159.218.218 0 0 0-.105-.116c-2.453-1.302-3.21.33-4.499 2.296a54.178 54.178 0 0 0-1.683 2.748c-.386.673-.593.623-.621-.152-.037-1.134.03-2.248.199-3.345a.186.186 0 0 1 .22-.152c.3.06-.03 1.767-.085 2.025a.247.247 0 0 0 .003.121c.011.04.032.075.06.103l.09.085a.038.038 0 0 0 .054-.004Zm4.54-4.977c.762.153 1.345.246 2.102.47a.258.258 0 0 0 .3-.123c.516-.926 4.08-7.551 3.7-8.105a.242.242 0 0 0-.343-.05 20.518 20.518 0 0 0-6.016 7.288.372.372 0 0 0 .107.453.36.36 0 0 0 .15.067ZM20.44 58.22a7.016 7.016 0 0 0 1.89-2.87c.38-1.083-.002-1.654-1.146-1.713-1.76-.09-3.333.398-4.723 1.463a.068.068 0 0 1-.058.01.06.06 0 0 1-.025-.015.056.056 0 0 1-.014-.025l-.038-.11a.124.124 0 0 1-.006-.048.064.064 0 0 1 .014-.036c1.358-1.277 4.93-2.803 6.617-1.12a.507.507 0 0 1 .144.363c-.119 3.086-3.226 6.207-5.776 7.796-.308.195-1.018.804-1.484.846-.65.06-.906-.231-.765-.871.47-2.14 1.508-3.894 3.112-5.264 1.56-1.327 1.683.715 1.974 1.527a.169.169 0 0 0 .122.108.178.178 0 0 0 .162-.04Zm-1.265-1.074a.428.428 0 0 0-.456-.151.414.414 0 0 0-.148.08 7.746 7.746 0 0 0-2.588 4.029c-.14.513.036.668.529.465 1.4-.571 4.025-2.609 2.663-4.423ZM33.758 61.425c-1.12.562-5.476 2.816-4.939-.541.031-.198-.007-.34-.114-.427a.272.272 0 0 0-.163-.063.265.265 0 0 0-.167.05l-2.815 2.063a.27.27 0 0 1-.208.047.264.264 0 0 1-.173-.119c-.203-.33 1.188-2.722 1.387-3.285a.358.358 0 0 0 .01-.195.345.345 0 0 0-.095-.168c-.9-.884-2.723 2.071-3.04 2.735-1.906 4.038-5.136 10.168-9.686 11.627-.857.273-1.413-.02-1.67-.88-.993-3.335 5.716-9.5 8.076-11.474 1.648-1.378 4.278-1.64 5.847-4.524a.169.169 0 0 1 .102-.081.16.16 0 0 1 .126.018l.127.076a.164.164 0 0 1 .072.19l-.288.892a.202.202 0 0 0 .07.22c.022.018.047.03.074.038l1.023.279a.35.35 0 0 1 .241.457l-.693 1.966a.169.169 0 0 0 .14.224l.215.025a1.208 1.208 0 0 0 .998-.338l4.012-3.983c.476-.47.853-.4 1.129.212 1.125 2.507-1.548 3.458-3.382 3.682-.587.073-.832.402-.736.985.304 1.805 3.632.148 4.646-.165a.616.616 0 0 0 .33-.245l.757-1.1a.287.287 0 0 1 .279-.122l.123.017a.122.122 0 0 1 .093.065.132.132 0 0 1 .004.117c-.182.401-1.002 1.31-.647 1.67a.214.214 0 0 0 .256.038.218.218 0 0 0 .07-.06 9.423 9.423 0 0 0 1.8-4.007c.153-.77.62-1.146 1.404-1.13.564.01.964.271 1.201.787.91 1.95-1.53 3.306-2.883 3.996a.326.326 0 0 0-.161.393c.596 1.78 4.063-1.239 4.376-1.036a.169.169 0 0 1 .025.262c-.76.727-4.266 3.39-4.883 1.142a.209.209 0 0 0-.21-.153.206.206 0 0 0-.09.026l-1.078.609a.224.224 0 0 1-.172.015.216.216 0 0 1-.129-.113l-.291-.613a.217.217 0 0 0-.128-.113.222.222 0 0 0-.172.012Zm-1.303-4.36c-.422.288-2.426 1.823-2.223 2.2a.253.253 0 0 0 .304.122c.545-.17 3.627-1.349 2.27-2.317a.3.3 0 0 0-.35-.004Zm6.266-.1a.275.275 0 0 0-.183-.1.266.266 0 0 0-.197.061c-.967.82-1.545 1.866-1.734 3.137-.034.223.048.28.245.17a7.303 7.303 0 0 0 2.398-2.14.411.411 0 0 0-.013-.494l-.516-.635ZM22.58 60.172c-3.209 1.582-8.773 7.108-9.636 10.989-.202.921.14 1.224 1.028.909 2.558-.905 4.63-3.31 6.185-5.894.36-.596 3.235-5.441 3.129-5.72a.517.517 0 0 0-.706-.284ZM94.255 56.271a.216.216 0 0 1 .304.017l.085.093a.074.074 0 0 1 .02.044.082.082 0 0 1-.012.049l-1.488 2.194a.302.302 0 0 0 .05.39.301.301 0 0 0 .124.067c2.832.736 1.39 4.232-1.425 3.729a.738.738 0 0 1-.6-.795c.233-2.314 1.214-4.243 2.942-5.788Zm-.212 3.936c-1.572-1.222-2.38.71-2.084 1.814a.283.283 0 0 0 .275.211 3.154 3.154 0 0 0 1.75-.52c.716-.476.736-.978.06-1.505ZM12.047 61.974l2.321-1.285a.17.17 0 0 1 .246.102c.202.731-2.377 2.101-2.842 2.266a.322.322 0 0 1-.401-.17c-.302-.65-.285-1.321.05-2.012a.58.58 0 0 0-.393-.816l-1.078-.245a.337.337 0 0 0-.176.009.324.324 0 0 0-.145.097c-.778.921-.968 2.169-1.717 2.989a.125.125 0 0 1-.086.04.133.133 0 0 1-.091-.032c-.5-.414 2.676-6.468 3.678-6.583.27-.03.335.07.194.305l-1.192 1.978a.26.26 0 0 0 .018.286c.02.027.046.049.075.066 2.08 1.145 2.22-1.895 3.264-2.44a.149.149 0 0 1 .197.059c.012.022.019.047.019.072-.013 1.218-1.64 3.835-2.228 5.044-.19.392-.093.482.287.27ZM64.232 61.514h.17a.305.305 0 0 0 .224-.09 18.375 18.375 0 0 0 3.445-4.7.435.435 0 0 1 .643-.153c.677.49-2.004 3.492-2.41 3.924a.588.588 0 0 0 .093.883c.96.673 4.097-5.022 4.515-4.946a.3.3 0 0 1 .2.456c-.753 1.197-2.364 3.361-1.996 4.795a.172.172 0 0 0 .174.13.174.174 0 0 0 .075-.02 19.197 19.197 0 0 0 6.27-5.09c.462-.573.913-.566 1.353.02 1.488 1.975-1.205 3.298-2.702 3.552-.892.152-1.822.693-1.2 1.674.262.417.627.548 1.095.393.465-.156 3.378-1.285 3.585-1.074a.126.126 0 0 1-.03.2c-1.162.663-5.982 3.284-5.323-.53a.227.227 0 0 0-.016-.139.169.169 0 0 0-.114-.09.176.176 0 0 0-.144.027l-3.285 2.24c-.274.187-.412.115-.415-.215l-.012-1.459c-.003-.33-.132-.389-.385-.177l-1.167.96a.413.413 0 0 1-.376.084c-.378-.093-.537-.38-.478-.858a.19.19 0 0 0-.165-.216l-.135-.017a.13.13 0 0 0-.115.042l-1.661 1.658c-.226.225-.321.18-.288-.136l.11-.985a.2.2 0 0 0-.127-.207c-.363-.148-3.792 1.518-4.405 1.543-.758.034-1.242-.597-1.45-1.894-.096-.594.07-1.105.499-1.53l2.773-2.753c.71-.704 1.257-.596 1.64.326.859 2.063-2.092 2.972-3.47 3.23-.53.102-.82.42-.871.956-.048.51.166.848.642 1.014.13.044.27.05.402.017 1.358-.35 2.689-.78 3.991-1.294.47-.186.562-.49.702-.93a.165.165 0 0 1 .207-.105l.118.038a.039.039 0 0 1 .024.02c.003.004.004.01.005.015l-.003.015-.351 1.21a.143.143 0 0 0 .14.186Zm-2.245-4.165a.41.41 0 0 0-.23-.063.395.395 0 0 0-.222.076c-.35.262-2.36 1.7-2.13 2.169a.258.258 0 0 0 .308.14c.52-.153 3.7-1.404 2.274-2.322Zm12.16 2.326c.583-.106 4.13-1.76 2.338-2.377a.452.452 0 0 0-.436.085l-2.037 1.738a.242.242 0 0 0-.08.177v.199a.19.19 0 0 0 .067.14.183.183 0 0 0 .148.038ZM82.294 61.996l2.258-1.303a.144.144 0 0 1 .198.055l.064.119a.237.237 0 0 1-.03.275 7.314 7.314 0 0 1-2.524 1.81c-.834.363-1.144.102-.93-.783l.444-1.843a.201.201 0 0 0-.025-.15.184.184 0 0 0-.123-.083l-1.547-.27a.423.423 0 0 0-.44.207l-1.125 1.961a.194.194 0 0 1-.33.017l-.088-.118a.4.4 0 0 1-.034-.41 26.32 26.32 0 0 1 3.302-5.095.224.224 0 0 1 .25-.067l.135.05a.171.171 0 0 1 .1.103.17.17 0 0 1-.016.143l-1.074 1.809a.462.462 0 0 0 .296.685c1.505.338 2.16-1.408 2.795-2.482a.21.21 0 0 1 .138-.102.221.221 0 0 1 .17.03c.402.258-1.872 4.57-2.168 5.158-.212.429-.11.523.304.284ZM87.3 60.321l1.475-1.657a.3.3 0 0 1 .198-.095.284.284 0 0 1 .204.065c.262.22-2.744 4.334-2.917 4.241a.166.166 0 0 1-.076-.083.159.159 0 0 1-.004-.111c.697-2.186.097-3.962-.816-6a.118.118 0 0 1 .114-.169l6.815.279a.246.246 0 0 1 .22.326c-.427 1.213-4.938.414-5.936.169-.155-.037-.207.02-.156.173.203.613.384 2.473.63 2.841a.165.165 0 0 0 .12.072.155.155 0 0 0 .129-.05Z" fill="currentColor"/><path d="m109.201 61.471-2.097 1.42a.406.406 0 0 1-.524-.064.397.397 0 0 1-.089-.168c-.525-2.063 1.31-5.678 3.5-6.194a.476.476 0 0 1 .385.072c1.049.71.089 1.768.888 2.639a.233.233 0 0 1-.025.334 3.432 3.432 0 0 0-1.298 2.355c-.068.555.122.663.57.325l1.679-1.268a.148.148 0 0 1 .224.059c.215.49-1.818 1.805-2.207 1.962a.418.418 0 0 1-.575-.343l-.106-.976a.206.206 0 0 0-.039-.101.207.207 0 0 0-.286-.052Zm-2.159.572c.103.068.245.075.418.02.173-.054.374-.17.592-.338.217-.17.447-.39.676-.648a7.9 7.9 0 0 0 .657-.856c.415-.622.73-1.272.876-1.81.147-.536.113-.916-.094-1.054-.103-.068-.245-.075-.418-.02-.173.054-.374.169-.592.338a5.22 5.22 0 0 0-.676.647c-.229.258-.452.55-.657.857-.415.621-.73 1.272-.876 1.81-.147.536-.113.915.094 1.053ZM96.42 62.042a.765.765 0 0 0 .85.326c.38-.106 3.728-1.21 3.767-1.18a.125.125 0 0 1 .032.047.124.124 0 0 1-.009.113.139.139 0 0 1-.04.043c-1.066.706-4.444 2.676-5.222.753-.423-1.052-.509-1.704-.258-1.958l3.213-3.247c.643-.648 1.242-.61 1.797.114.541.708.309 1.469-.697 2.283-.825.672-4.55.939-3.433 2.706Zm.93-2.892c-.324.375-.243.523.245.444.418-.068 3.843-1.459 2.266-2.283a.372.372 0 0 0-.372.013 9.096 9.096 0 0 0-2.14 1.826Z" fill="currentColor"/></svg>