<svg width="27" height="24" fill="none" xmlns="http://www.w3.org/2000/svg"><path d="M10.975.094c.062-.063.156-.094.28-.094.188 0 .345.126.47.378s.094.44-.094.567C7.316 4.598 4.815 8.504 4.127 12.66c-.062.378-.094.85-.094 1.418 0 .504.032.882.094 1.134.625-.504 1.407-.756 2.345-.756 1.438 0 2.564.472 3.377 1.417.813.882 1.22 1.953 1.22 3.213 0 1.385-.47 2.55-1.408 3.496-.938.945-2.25 1.417-3.94 1.417-1.813 0-3.22-.567-4.22-1.7C.5 21.164 0 19.56 0 17.48c0-1.07.125-2.11.375-3.118.5-2.457 1.689-4.945 3.565-7.464 1.938-2.583 4.283-4.85 7.035-6.804Zm14.726 0c.062-.063.156-.094.281-.094.188 0 .344.126.47.378.124.252.093.44-.095.567-4.314 3.653-6.816 7.559-7.503 11.716-.063.378-.094.85-.094 1.418 0 .504.031.882.094 1.134.625-.504 1.407-.756 2.345-.756 1.438 0 2.563.472 3.376 1.417.813.882 1.22 1.953 1.22 3.213 0 1.385-.47 2.55-1.407 3.496-.938.945-2.252 1.417-3.94 1.417-1.813 0-3.22-.567-4.22-1.7-1.001-1.135-1.502-2.74-1.502-4.82 0-1.07.125-2.11.376-3.118.5-2.457 1.688-4.945 3.564-7.464 1.939-2.583 4.283-4.85 7.035-6.804Z" fill="#CAB59B"/></svg>