<svg width="20" height="12" fill="none" xmlns="http://www.w3.org/2000/svg"><path fill-rule="evenodd" clip-rule="evenodd" d="M17.04 7.37c.656.642 1.349 1.245 1.938 1.95.26.314.506.638.695 1.002.267.518.025 1.087-.439 1.118l-2.884-.001c-.744.061-1.337-.238-1.836-.747-.4-.406-.77-.84-1.153-1.26a2.731 2.731 0 0 0-.52-.461c-.393-.256-.735-.178-.96.233-.23.418-.281.88-.304 1.346-.03.679-.236.857-.918.889-1.458.068-2.842-.152-4.127-.888-1.133-.648-2.012-1.563-2.777-2.6C2.265 5.933 1.125 3.716.1 1.437-.13.923.038.647.605.637c.94-.018 1.881-.016 2.823 0 .383.005.636.224.784.586.509 1.251 1.132 2.442 1.913 3.546.209.294.421.588.723.795.335.229.59.153.747-.22.1-.236.143-.49.166-.744.074-.87.084-1.74-.046-2.607-.08-.541-.386-.891-.926-.994-.276-.052-.235-.155-.101-.312.232-.271.45-.44.884-.44h3.26c.513.1.627.331.697.848l.003 3.62c-.005.2.1.794.46.926.288.094.478-.136.651-.32.78-.827 1.338-1.806 1.835-2.82.221-.446.411-.909.595-1.371.136-.343.35-.512.737-.505l3.137.003c.093 0 .187.001.277.017.529.09.674.317.51.834-.257.81-.757 1.484-1.247 2.163-.523.723-1.082 1.423-1.601 2.15-.477.666-.439 1.001.153 1.579Z" fill="currentColor"/></svg>