<svg width="20" height="20" fill="none" xmlns="http://www.w3.org/2000/svg"><path d="M19.892 9.33c0 5.126-4.189 9.283-9.356 9.283-1.64 0-3.182-.42-4.523-1.155l-5.18 1.645 1.69-4.98A9.186 9.186 0 0 1 1.18 9.329c0-5.127 4.189-9.283 9.356-9.283 5.168 0 9.356 4.156 9.356 9.283Zm-9.356-7.806c-4.338 0-7.866 3.501-7.866 7.805 0 1.708.557 3.29 1.498 4.576l-.982 2.899 3.022-.96a7.861 7.861 0 0 0 4.328 1.29c4.337 0 7.866-3.5 7.866-7.804s-3.529-7.806-7.866-7.806Zm4.724 9.943c-.058-.095-.21-.152-.44-.265-.229-.114-1.357-.665-1.566-.74-.21-.076-.364-.114-.517.113-.152.228-.592.74-.726.892-.134.152-.267.171-.497.058-.229-.114-.968-.355-1.844-1.13-.681-.603-1.142-1.347-1.276-1.575-.133-.228-.014-.351.1-.464.104-.102.23-.266.345-.399.115-.133.153-.227.23-.38.076-.151.038-.284-.02-.398-.057-.114-.516-1.234-.707-1.69-.191-.455-.382-.379-.516-.379s-.287-.019-.44-.019a.846.846 0 0 0-.611.285c-.21.228-.803.778-.803 1.898 0 1.12.822 2.201.937 2.353.114.151 1.586 2.524 3.917 3.435 2.332.91 2.332.607 2.752.569.42-.038 1.357-.55 1.549-1.082.19-.531.19-.987.133-1.082Z" fill="currentColor"/></svg>